<svg width="733" height="315" viewBox="0 0 733 315" fill="none" xmlns="http://www.w3.org/2000/svg">
<g filter="url(#filter0_d_3005_55163)">
<rect x="140.621" y="19.1436" width="421" height="146" transform="rotate(-2.47 140.621 19.1436)" fill="#2395DD" shape-rendering="crispEdges"/>
<rect x="140.621" y="19.1436" width="421" height="146" transform="rotate(-2.47 140.621 19.1436)" stroke="black" shape-rendering="crispEdges"/>
<path d="M243.721 57.0457L244.394 72.6512C240.273 70.7003 236.581 69.3548 233.32 68.6147C230.058 67.8746 226.486 67.5883 222.603 67.7558C214.91 68.0876 208.712 70.7405 204.008 75.7145C199.305 80.6885 197.116 86.9487 197.442 94.495C197.761 101.895 200.439 107.835 205.477 112.315C210.515 116.796 216.917 118.868 224.683 118.533C228.786 118.356 232.572 117.642 236.041 116.392C239.511 115.141 243.24 113.109 247.229 110.294L247.93 126.559C243.343 129.106 239.054 130.942 235.066 132.068C231.151 133.192 226.775 133.857 221.94 134.066C209.485 134.603 199.141 131.343 190.909 124.284C182.678 117.226 178.307 107.799 177.798 96.0029C177.274 83.8409 180.87 73.6297 188.588 65.3695C196.306 57.1092 206.429 52.7088 218.958 52.1684C223.427 51.9756 227.475 52.2414 231.103 52.9657C234.728 53.6168 238.934 54.9768 243.721 57.0457ZM263.029 130.972L259.611 51.736L292.251 50.328C299.504 50.0151 305.492 51.8488 310.215 55.8289C315.011 59.806 317.551 65.0914 317.835 71.6853C318.233 80.9167 314.363 87.3228 306.223 90.9036C307.72 91.573 308.772 92.1515 309.38 92.6391C310.062 93.1235 311.022 94.1097 312.261 95.5977C313.031 96.4453 313.652 97.2259 314.123 97.9396C314.356 98.2232 314.905 99.0436 315.771 100.401L324.834 116.525L331.276 128.028L311.384 128.886L307.311 121.245L302.78 113.183C299.596 107.448 297.076 103.483 295.22 101.287C292.584 98.0247 289.214 96.4818 285.111 96.6588L280.605 96.8531L282.042 130.152L263.029 130.972ZM279.174 63.664L280.084 84.7644L287.667 84.4373C291.33 84.2792 294.113 83.2784 296.015 81.4347C297.988 79.5146 298.903 76.906 298.76 73.6091C298.609 70.0924 297.468 67.4624 295.337 65.7193C293.207 63.9762 290.163 63.1899 286.207 63.3606L279.174 63.664ZM330.476 128.063L359.258 47.4376L378.71 46.5985L415.317 124.403L394.656 125.294L387.533 108.205L356.542 109.542L351.027 127.176L330.476 128.063ZM368.868 71.1354L360.622 96.9248L382.052 96.0004L371.506 71.0217C370.939 69.7983 370.522 68.6418 370.255 67.5523C369.984 66.3896 369.816 65.0389 369.75 63.5003C369.886 66.6507 369.592 69.1958 368.868 71.1354ZM424.055 124.026L420.637 44.7899L468.223 42.7372L468.82 56.5843L440.247 57.8169L441.039 76.1698L467.964 75.0084L468.547 88.5258L441.622 89.6872L443.068 123.206L424.055 124.026ZM469.153 56.6801L468.551 42.7231L535.039 39.855L535.651 54.0318L512.023 55.051L514.829 120.111L495.817 120.931L493.001 55.6514L469.153 56.6801Z" fill="white"/>
</g>
<g filter="url(#filter1_d_3005_55163)">
<rect x="3.27686" y="145.008" width="704" height="132" transform="rotate(1 3.27686 145.008)" fill="#EC4E24" shape-rendering="crispEdges"/>
<rect x="3.27686" y="145.008" width="704" height="132" transform="rotate(1 3.27686 145.008)" stroke="black" shape-rendering="crispEdges"/>
<path d="M64.016 167.479L63.8971 174.294C62.1535 173.336 60.5812 172.652 59.1802 172.244C57.7791 171.835 56.2307 171.616 54.5349 171.587C51.1754 171.528 48.4057 172.52 46.2257 174.562C44.0457 176.604 42.927 179.273 42.8695 182.569C42.8131 185.8 43.8228 188.458 45.8988 190.543C47.9747 192.627 50.7084 193.699 54.0999 193.758C55.8916 193.79 57.5596 193.579 59.1037 193.126C60.6478 192.672 62.3258 191.886 64.1377 190.765L64.0137 197.868C61.9481 198.856 60.0319 199.543 58.2649 199.928C56.5299 200.314 54.6065 200.488 52.4948 200.451C47.0557 200.356 42.6366 198.663 39.2375 195.371C35.8384 192.079 34.1838 187.858 34.2738 182.707C34.3665 177.395 36.2027 173.043 39.7825 169.649C43.3623 166.255 47.8877 164.606 53.3589 164.701C55.3106 164.735 57.067 164.958 58.6281 165.369C60.1897 165.748 61.9857 166.452 64.016 167.479ZM70.5217 200.19L70.9707 174.466L78.7455 174.602L78.2965 200.326L70.5217 200.19ZM70.8734 169.039C70.8963 167.728 71.3155 166.631 72.131 165.749C72.9465 164.867 73.9462 164.436 75.13 164.457C76.2818 164.477 77.2501 164.926 78.0349 165.804C78.8197 166.682 79.201 167.76 79.1786 169.04C79.1607 170.064 78.7454 170.937 77.9327 171.659C77.12 172.381 76.1377 172.732 74.9859 172.712C73.8341 172.692 72.8481 172.338 72.0279 171.652C71.2404 170.934 70.8555 170.063 70.8734 169.039ZM82.4698 174.667L90.6765 174.81L94.9692 187.415C95.2112 188.219 95.3606 188.83 95.4173 189.247C95.506 189.664 95.5445 190.209 95.5328 190.881C95.5557 189.569 95.7678 188.421 96.169 187.436L100.851 174.987L109.01 175.13L98.0023 200.67L92.8191 200.579L82.4698 174.667ZM112.253 200.918L112.702 175.194L120.477 175.33L120.028 201.054L112.253 200.918ZM112.605 169.768C112.627 168.456 113.047 167.359 113.862 166.477C114.678 165.595 115.677 165.165 116.861 165.185C118.013 165.205 118.981 165.654 119.766 166.532C120.551 167.41 120.932 168.489 120.91 169.769C120.892 170.793 120.477 171.665 119.664 172.387C118.851 173.109 117.869 173.46 116.717 173.44C115.565 173.42 114.579 173.067 113.759 172.38C112.971 171.662 112.587 170.792 112.605 169.768ZM127.399 201.183L128.003 166.58L135.826 166.717L135.222 201.319L127.399 201.183ZM158.82 201.731L159.424 167.128L181.212 167.509L181.107 173.556L167.621 173.32L167.482 181.287L180.152 181.508L180.05 187.364L167.38 187.142L167.227 195.877L181.049 196.118L180.944 202.117L158.82 201.731ZM187.043 202.224L187.492 176.5L195.315 176.636L195.253 180.188C197.7 177.51 200.396 176.197 203.339 176.248C205.931 176.294 207.997 177.13 209.536 178.757C211.076 180.384 211.822 182.557 211.775 185.277L211.472 202.65L203.649 202.514L203.912 187.444C203.927 186.58 203.844 185.859 203.662 185.279C203.483 184.508 203.078 183.893 202.446 183.434C201.846 182.943 201.13 182.691 200.299 182.676C198.571 182.646 196.857 183.64 195.158 185.659L194.866 202.36L187.043 202.224ZM222.335 202.744C220.557 201.977 219.682 200.761 219.711 199.097C219.746 197.05 221.211 195.651 224.105 194.902C219.876 193.323 217.797 190.455 217.87 186.295C217.918 183.512 218.967 181.21 221.015 179.389C223.063 177.569 225.639 176.686 228.742 176.74C229.574 176.754 230.118 176.796 230.372 176.864C230.628 176.901 231.185 177.038 232.045 177.277L241.74 177.447L241.658 182.15L237.818 182.083C238.477 182.863 238.959 183.655 239.265 184.461C239.572 185.234 239.717 186.085 239.701 187.013C239.662 189.22 238.926 191.08 237.491 192.591C236.056 194.102 234.038 195.139 231.436 195.702L229.654 196.007C228.047 196.395 227.236 197.053 227.219 197.98C227.211 198.46 227.365 198.831 227.68 199.093C228.028 199.323 228.489 199.523 229.062 199.693C229.635 199.831 230.672 200.025 232.172 200.275C237.948 201.272 240.801 203.706 240.734 207.578C240.69 210.073 239.504 212.005 237.176 213.372C234.879 214.773 231.731 215.438 227.732 215.368C224.149 215.305 221.296 214.648 219.173 213.394C217.083 212.142 216.056 210.475 216.092 208.396C216.115 207.052 216.68 205.862 217.786 204.825C218.924 203.82 220.44 203.127 222.335 202.744ZM228.795 181.973C227.643 181.953 226.676 182.352 225.894 183.171C225.111 183.989 224.71 184.991 224.689 186.174C224.667 187.422 225.032 188.501 225.785 189.41C226.57 190.288 227.522 190.737 228.642 190.756C229.825 190.777 230.825 190.362 231.64 189.512C232.455 188.662 232.873 187.597 232.896 186.318C232.916 185.134 232.534 184.119 231.749 183.273C230.963 182.427 229.979 181.994 228.795 181.973ZM228.239 205.583L225.703 205.107C223.863 206.003 222.933 207.027 222.913 208.179C222.899 208.979 223.383 209.643 224.366 210.172C225.349 210.702 226.64 210.98 228.24 211.008C229.808 211.036 231.108 210.818 232.14 210.356C233.172 209.894 233.695 209.295 233.708 208.559C233.718 207.983 233.502 207.515 233.06 207.156C232.65 206.796 231.92 206.48 230.868 206.205L228.239 205.583ZM245.648 203.247L246.097 177.523L253.872 177.658L253.423 203.382L245.648 203.247ZM246 172.096C246.023 170.784 246.442 169.688 247.257 168.806C248.073 167.924 249.073 167.493 250.256 167.514C251.408 167.534 252.377 167.983 253.161 168.861C253.946 169.739 254.327 170.817 254.305 172.097C254.287 173.121 253.872 173.994 253.059 174.716C252.246 175.438 251.264 175.789 250.112 175.769C248.961 175.748 247.975 175.395 247.154 174.709C246.367 173.991 245.982 173.12 246 172.096ZM260.795 203.511L261.244 177.787L269.067 177.924L269.005 181.475C271.452 178.797 274.147 177.484 277.091 177.536C279.682 177.581 281.748 178.417 283.288 180.044C284.828 181.671 285.574 183.845 285.526 186.564L285.223 203.938L277.4 203.801L277.663 188.731C277.678 187.867 277.595 187.146 277.413 186.567C277.234 185.795 276.829 185.18 276.197 184.721C275.597 184.231 274.882 183.978 274.05 183.964C272.322 183.933 270.609 184.928 268.909 186.946L268.618 203.648L260.795 203.511ZM316.588 192.915L299.838 192.623C300.06 194.611 300.8 196.192 302.06 197.366C303.32 198.509 304.974 199.098 307.022 199.133C309.55 199.177 312.479 198.22 315.809 196.262L315.715 201.685C312.188 203.864 308.681 204.923 305.194 204.862C301.13 204.791 297.873 203.486 295.42 200.947C292.968 198.408 291.778 195.107 291.849 191.043C291.917 187.108 293.157 183.929 295.568 181.507C298.011 179.053 301.088 177.858 304.8 177.923C308.543 177.989 311.465 179.256 313.567 181.725C315.668 184.194 316.681 187.572 316.606 191.859L316.588 192.915ZM305.186 183.307C303.906 183.284 302.811 183.697 301.9 184.546C300.989 185.394 300.376 186.567 300.062 188.066L309.804 188.236C309.671 186.698 309.196 185.505 308.379 184.659C307.594 183.781 306.53 183.33 305.186 183.307ZM346.874 193.444L330.124 193.152C330.346 195.14 331.086 196.721 332.346 197.895C333.606 199.037 335.26 199.626 337.308 199.662C339.836 199.706 342.765 198.749 346.095 196.791L346.001 202.214C342.474 204.393 338.967 205.452 335.48 205.391C331.416 205.32 328.159 204.015 325.706 201.476C323.254 198.937 322.064 195.635 322.135 191.572C322.203 187.636 323.443 184.458 325.854 182.035C328.297 179.582 331.374 178.387 335.086 178.452C338.829 178.517 341.751 179.784 343.853 182.253C345.954 184.723 346.967 188.101 346.892 192.388L346.874 193.444ZM335.472 183.835C334.192 183.813 333.097 184.226 332.186 185.074C331.275 185.923 330.662 187.096 330.348 188.595L340.091 188.765C339.957 187.226 339.482 186.034 338.665 185.187C337.88 184.31 336.816 183.859 335.472 183.835ZM353.106 205.122L353.555 179.398L361.329 179.534L361.238 184.765C362.586 182.741 363.828 181.274 364.964 180.366C366.132 179.458 367.323 179.015 368.539 179.036C370.299 179.067 372.158 179.803 374.118 181.246L371.062 188.537C369.579 187.295 368.182 186.663 366.87 186.64C365.431 186.615 364.121 187.392 362.941 188.972C361.761 190.551 361.154 192.349 361.119 194.365L360.928 205.259L353.106 205.122ZM377.722 205.552L378.171 179.828L385.946 179.964L385.497 205.688L377.722 205.552ZM378.073 174.402C378.096 173.09 378.516 171.993 379.331 171.111C380.147 170.229 381.146 169.798 382.33 169.819C383.482 169.839 384.45 170.288 385.235 171.166C386.02 172.044 386.401 173.123 386.379 174.402C386.361 175.426 385.946 176.299 385.133 177.021C384.32 177.743 383.338 178.094 382.186 178.074C381.034 178.054 380.048 177.7 379.228 177.014C378.44 176.296 378.056 175.425 378.073 174.402ZM392.868 205.817L393.317 180.092L401.14 180.229L401.078 183.78C403.525 181.103 406.221 179.79 409.164 179.841C411.756 179.886 413.821 180.722 415.361 182.35C416.901 183.977 417.647 186.15 417.6 188.87L417.297 206.243L409.474 206.106L409.737 191.037C409.752 190.173 409.669 189.451 409.487 188.872C409.308 188.101 408.903 187.486 408.271 187.026C407.671 186.536 406.955 186.283 406.124 186.269C404.396 186.239 402.682 187.233 400.983 189.252L400.691 205.953L392.868 205.817ZM428.16 206.337C426.382 205.569 425.507 204.354 425.536 202.69C425.571 200.642 427.036 199.244 429.93 198.494C425.7 196.916 423.622 194.047 423.695 189.888C423.743 187.105 424.792 184.802 426.84 182.982C428.888 181.161 431.464 180.278 434.567 180.332C435.399 180.347 435.942 180.388 436.197 180.457C436.453 180.493 437.01 180.631 437.87 180.87L447.565 181.039L447.483 185.743L443.643 185.676C444.302 186.455 444.784 187.248 445.09 188.053C445.397 188.827 445.542 189.677 445.526 190.605C445.487 192.813 444.75 194.672 443.316 196.183C441.881 197.695 439.863 198.732 437.261 199.294L435.479 199.599C433.872 199.987 433.06 200.645 433.044 201.573C433.036 202.053 433.189 202.424 433.505 202.685C433.853 202.915 434.314 203.115 434.887 203.285C435.46 203.423 436.497 203.618 437.997 203.868C443.772 204.865 446.626 207.299 446.559 211.17C446.515 213.666 445.329 215.598 443.001 216.965C440.704 218.365 437.556 219.03 433.557 218.961C429.973 218.898 427.12 218.24 424.998 216.987C422.908 215.734 421.881 214.068 421.917 211.988C421.94 210.645 422.505 209.454 423.611 208.417C424.749 207.413 426.265 206.72 428.16 206.337ZM434.62 185.566C433.468 185.546 432.501 185.945 431.719 186.764C430.936 187.582 430.535 188.583 430.514 189.767C430.492 191.015 430.857 192.093 431.61 193.003C432.394 193.881 433.347 194.329 434.467 194.349C435.65 194.369 436.65 193.955 437.465 193.105C438.28 192.255 438.698 191.19 438.721 189.91C438.741 188.727 438.359 187.712 437.574 186.866C436.788 186.02 435.804 185.587 434.62 185.566ZM434.064 209.176L431.528 208.7C429.688 209.596 428.758 210.62 428.738 211.771C428.724 212.571 429.208 213.236 430.191 213.765C431.174 214.294 432.465 214.573 434.065 214.601C435.633 214.628 436.933 214.411 437.965 213.949C438.997 213.487 439.52 212.888 439.533 212.152C439.543 211.576 439.327 211.108 438.885 210.748C438.475 210.389 437.745 210.072 436.693 209.798L434.064 209.176ZM464.241 207.062L478.907 172.705L487.402 172.853L501.291 207.709L492.269 207.552L489.618 199.92L476.084 199.684L473.216 207.219L464.241 207.062ZM482.467 183.281L478.194 194.296L487.553 194.459L483.619 183.301C483.404 182.753 483.253 182.238 483.166 181.757C483.078 181.243 483.041 180.65 483.053 179.979C483.029 181.354 482.833 182.455 482.467 183.281ZM522.22 183.015L522.386 173.464L530.161 173.6L529.557 208.202L521.734 208.066L521.766 206.242C520.663 207.119 519.612 207.725 518.614 208.059C517.616 208.394 516.429 208.549 515.053 208.525C511.63 208.466 508.836 207.169 506.672 204.634C504.508 202.1 503.459 198.914 503.526 195.074C503.596 191.075 504.821 187.832 507.201 185.345C509.613 182.826 512.675 181.6 516.386 181.665C517.538 181.685 518.513 181.782 519.31 181.956C520.107 182.13 521.077 182.483 522.22 183.015ZM521.861 200.819L522.068 188.965C520.737 188.173 519.416 187.766 518.104 187.743C516.281 187.712 514.781 188.374 513.605 189.729C512.429 191.085 511.823 192.835 511.785 194.978C511.749 197.058 512.295 198.78 513.423 200.144C514.552 201.508 516.012 202.205 517.804 202.236C519.179 202.26 520.532 201.788 521.861 200.819ZM533.648 182.542L541.855 182.685L546.147 195.29C546.389 196.094 546.539 196.705 546.596 197.122C546.684 197.54 546.723 198.084 546.711 198.756C546.734 197.445 546.946 196.296 547.347 195.311L552.029 182.863L560.188 183.005L549.181 208.545L543.997 208.454L533.648 182.542ZM576.768 193.088L576.794 191.552C576.811 190.592 576.473 189.818 575.779 189.23C575.085 188.642 574.162 188.338 573.01 188.318C570.931 188.281 568.839 188.949 566.734 190.321C566.345 190.602 565.989 190.868 565.664 191.118C565.177 191.558 564.754 191.934 564.396 192.248L564.51 185.721L566.257 184.695C569.001 183.303 571.845 182.633 574.789 182.684C577.732 182.735 580.087 183.545 581.852 185.112C583.649 186.647 584.526 188.647 584.483 191.11L584.302 201.477C584.286 202.437 584.354 203.094 584.508 203.449C584.694 203.772 585.028 203.938 585.507 203.946C586.083 203.956 586.809 203.665 587.683 203.072L586.923 208.1C584.216 209.173 582.143 209.696 580.703 209.671C579.647 209.653 578.802 209.478 578.168 209.147C577.565 208.816 577.047 208.231 576.614 207.392C574.381 208.825 572.128 209.522 569.857 209.482C567.649 209.443 565.836 208.788 564.418 207.515C563 206.242 562.309 204.597 562.344 202.582C562.397 199.51 564.117 197.268 567.502 195.855C568.792 195.301 570.08 194.844 571.367 194.482L572.957 194.126L574.935 193.584L576.768 193.088ZM576.501 202.877L576.595 197.454C574.217 198.02 572.51 198.663 571.473 199.381C570.437 200.067 569.909 200.954 569.89 202.041C569.878 202.777 570.123 203.406 570.626 203.927C571.129 204.447 571.748 204.714 572.484 204.727C573.156 204.739 573.83 204.591 574.508 204.282C575.218 203.943 575.882 203.474 576.501 202.877ZM591.982 209.292L592.431 183.568L600.254 183.705L600.192 187.256C602.639 184.578 605.334 183.265 608.278 183.317C610.869 183.362 612.935 184.198 614.475 185.825C616.015 187.452 616.761 189.626 616.713 192.345L616.41 209.718L608.587 209.582L608.85 194.512C608.865 193.648 608.782 192.927 608.6 192.348C608.421 191.576 608.016 190.961 607.384 190.502C606.785 190.011 606.069 189.759 605.237 189.744C603.509 189.714 601.796 190.709 600.096 192.727L599.805 209.429L591.982 209.292ZM644.693 185.488L644.582 191.823C643.537 191.229 642.552 190.796 641.629 190.524C640.737 190.252 639.78 190.107 638.756 190.089C636.644 190.053 634.888 190.71 633.489 192.062C632.089 193.414 631.371 195.129 631.334 197.209C631.298 199.321 631.956 201.044 633.308 202.38C634.661 203.716 636.41 204.403 638.553 204.44C639.641 204.459 640.619 204.364 641.487 204.155C642.355 203.946 643.322 203.531 644.389 202.91L644.281 209.101C641.829 210.21 639.307 210.742 636.716 210.697C632.588 210.625 629.25 209.334 626.702 206.826C624.186 204.285 622.962 201.047 623.031 197.112C623.098 193.241 624.467 190.032 627.135 187.486C629.837 184.909 633.171 183.655 637.139 183.724C638.354 183.745 639.568 183.895 640.779 184.172C641.991 184.449 643.295 184.888 644.693 185.488ZM674.733 199.167L657.984 198.874C658.205 200.863 658.946 202.444 660.205 203.618C661.466 204.76 663.12 205.349 665.167 205.385C667.695 205.429 670.624 204.472 673.955 202.514L673.86 207.937C670.334 210.116 666.827 211.175 663.339 211.114C659.276 211.043 656.018 209.738 653.566 207.199C651.114 204.659 649.923 201.358 649.994 197.295C650.063 193.359 651.303 190.18 653.713 187.758C656.156 185.304 659.234 184.11 662.945 184.175C666.689 184.24 669.611 185.507 671.712 187.976C673.813 190.445 674.827 193.824 674.752 198.111L674.733 199.167ZM663.331 189.558C662.051 189.536 660.956 189.949 660.045 190.797C659.134 191.645 658.522 192.819 658.207 194.318L667.95 194.488C667.817 192.949 667.342 191.757 666.524 190.91C665.739 190.032 664.675 189.582 663.331 189.558ZM135.997 260.662L136.121 253.559C137.544 254.576 138.811 255.35 139.922 255.882C141.574 256.551 143.152 256.898 144.656 256.924C146.096 256.95 147.27 256.602 148.179 255.882C149.087 255.161 149.552 254.209 149.573 253.026C149.603 251.298 148.429 249.773 146.052 248.451L142.771 246.666C138.523 244.351 136.432 241.274 136.499 237.435C136.55 234.492 137.697 232.063 139.939 230.15C142.212 228.237 145.045 227.311 148.436 227.37C149.3 227.385 150.179 227.48 151.072 227.656C151.965 227.8 152.921 228.056 153.939 228.426C154.989 228.796 156.163 229.361 157.462 230.12L157.336 237.319L155.776 235.947C154.828 235.259 153.781 234.696 152.637 234.26C151.524 233.825 150.456 233.598 149.432 233.58C148.152 233.558 147.074 233.939 146.196 234.724C145.318 235.509 144.869 236.477 144.849 237.629C144.832 238.621 145.121 239.474 145.716 240.188C146.312 240.903 147.37 241.689 148.892 242.548L151.746 244.038C154.06 245.327 155.717 246.652 156.717 248.014C157.718 249.375 158.201 251.016 158.168 252.936C158.114 256.007 156.935 258.483 154.63 260.363C152.324 262.243 149.332 263.151 145.653 263.087C144.725 263.071 143.798 262.99 142.872 262.846C141.979 262.703 141.022 262.51 140.002 262.268C139.238 262.031 138.634 261.828 138.188 261.66C137.775 261.493 137.045 261.16 135.997 260.662ZM163.713 249.96C163.784 245.929 165.104 242.703 167.675 240.284C170.246 237.864 173.563 236.69 177.626 236.761C181.689 236.832 184.947 238.137 187.399 240.676C189.884 243.184 191.091 246.437 191.021 250.437C190.952 254.404 189.632 257.613 187.061 260.065C184.49 262.516 181.188 263.707 177.157 263.637C173.093 263.566 169.819 262.276 167.335 259.769C164.85 257.261 163.643 253.991 163.713 249.96ZM177.522 242.712C175.826 242.682 174.439 243.346 173.359 244.703C172.279 246.061 171.719 247.859 171.68 250.099C171.642 252.275 172.139 254.06 173.171 255.454C174.203 256.848 175.567 257.56 177.262 257.59C178.958 257.619 180.346 256.971 181.425 255.646C182.537 254.289 183.112 252.507 183.151 250.299C183.189 248.092 182.676 246.29 181.613 244.896C180.581 243.469 179.218 242.741 177.522 242.712ZM194.842 243.158L194.938 237.639L198.585 237.703L198.593 237.271C198.639 234.615 199.605 232.456 201.49 230.792C203.376 229.129 205.806 228.323 208.782 228.375C209.902 228.395 210.892 228.476 211.754 228.619C212.616 228.762 213.795 229.039 215.292 229.449L215.205 234.44C213.678 233.902 212.243 233.62 210.899 233.597C209.459 233.572 208.35 233.873 207.571 234.499C206.792 235.126 206.392 236.031 206.371 237.214L206.36 237.838L212.647 237.948L212.552 243.419L206.217 243.309L205.863 263.562L198.088 263.426L198.441 243.221L194.842 243.158ZM213.408 243.29L213.501 237.963L217.197 238.028L217.303 231.932L225.126 232.069L225.02 238.164L233.034 238.304L232.941 243.679L224.926 243.539L224.741 254.098C224.727 254.898 224.779 255.603 224.897 256.213C225.046 256.791 225.453 257.311 226.118 257.77C226.782 258.23 227.578 258.468 228.505 258.484C229.817 258.507 231.218 258.003 232.708 256.973L232.601 263.116L231.152 263.619C230.315 263.892 229.432 264.101 228.501 264.245C227.57 264.421 226.64 264.5 225.712 264.484C223.697 264.449 221.96 264.019 220.502 263.193C219.045 262.336 217.993 261.165 217.347 259.681C217.011 258.779 216.856 257.545 216.883 255.977L217.104 243.355L213.408 243.29ZM234.447 238.329L242.942 238.477L246.955 250.597C247.045 250.918 247.134 251.368 247.219 251.946C247.338 252.492 247.393 253.005 247.385 253.485C247.46 252.814 247.55 252.271 247.653 251.857C247.756 251.443 247.892 251.013 248.06 250.568L252.684 238.647L257.676 238.734L261.882 250.809C262.095 251.421 262.246 251.92 262.335 252.306C262.425 252.691 262.464 253.172 262.454 253.748C262.465 253.14 262.522 252.645 262.624 252.263C262.727 251.88 262.879 251.419 263.08 250.878L267.466 238.905L275.961 239.053L265.001 264.594L260.394 264.513L255.859 252.048C255.554 251.179 255.326 250.487 255.175 249.972C255.057 249.426 255.004 248.785 255.017 248.049C254.999 249.041 254.889 249.855 254.686 250.492C254.419 251.127 254.218 251.636 254.083 252.017L249.02 264.315L244.413 264.235L234.447 238.329ZM292.884 249.142L292.91 247.606C292.927 246.647 292.589 245.873 291.895 245.284C291.201 244.696 290.278 244.392 289.126 244.372C287.047 244.336 284.955 245.003 282.85 246.375C282.461 246.656 282.105 246.922 281.78 247.172C281.293 247.612 280.87 247.988 280.512 248.302L280.626 241.775L282.372 240.749C285.117 239.357 287.961 238.687 290.905 238.738C293.848 238.789 296.203 239.599 297.968 241.166C299.765 242.701 300.642 244.701 300.599 247.165L300.418 257.531C300.402 258.491 300.47 259.148 300.624 259.503C300.81 259.826 301.143 259.992 301.623 260C302.199 260.01 302.925 259.719 303.799 259.126L303.039 264.154C300.332 265.227 298.259 265.75 296.819 265.725C295.763 265.707 294.918 265.532 294.284 265.201C293.681 264.87 293.163 264.285 292.73 263.446C290.497 264.879 288.244 265.576 285.972 265.536C283.765 265.498 281.952 264.842 280.534 263.569C279.116 262.296 278.425 260.652 278.46 258.636C278.513 255.564 280.233 253.322 283.618 251.909C284.908 251.355 286.196 250.898 287.482 250.536L289.073 250.18L291.051 249.638L292.884 249.142ZM292.617 258.931L292.711 253.508C290.333 254.074 288.626 254.717 287.589 255.435C286.553 256.121 286.025 257.008 286.006 258.095C285.993 258.831 286.239 259.46 286.741 259.981C287.244 260.501 287.864 260.768 288.6 260.781C289.272 260.793 289.946 260.645 290.624 260.336C291.334 259.997 291.998 259.528 292.617 258.931ZM308.098 265.346L308.547 239.622L316.322 239.758L316.23 244.989C317.578 242.964 318.82 241.498 319.956 240.589C321.124 239.682 322.316 239.238 323.531 239.26C325.291 239.29 327.151 240.027 329.11 241.469L326.054 248.761C324.571 247.519 323.174 246.886 321.862 246.864C320.423 246.838 319.113 247.616 317.933 249.195C316.753 250.775 316.146 252.573 316.111 254.588L315.921 265.483L308.098 265.346ZM354.892 254.593L338.143 254.301C338.364 256.289 339.105 257.87 340.364 259.044C341.625 260.186 343.279 260.775 345.326 260.811C347.854 260.855 350.783 259.898 354.114 257.94L354.019 263.363C350.493 265.542 346.986 266.601 343.498 266.54C339.435 266.469 336.177 265.164 333.725 262.625C331.273 260.086 330.082 256.785 330.153 252.721C330.222 248.786 331.462 245.607 333.872 243.185C336.315 240.731 339.393 239.536 343.104 239.601C346.848 239.667 349.77 240.934 351.871 243.403C353.972 245.872 354.986 249.25 354.911 253.537L354.892 254.593ZM343.49 244.985C342.21 244.962 341.115 245.375 340.204 246.224C339.293 247.072 338.681 248.245 338.366 249.744L348.109 249.914C347.976 248.376 347.5 247.183 346.683 246.337C345.898 245.459 344.834 245.008 343.49 244.985ZM374.438 237.988L374.544 231.893L403.58 232.4L403.471 238.591L393.153 238.41L392.657 266.822L384.354 266.677L384.852 238.17L374.438 237.988ZM404.402 267.027L404.851 241.303L412.626 241.439L412.534 246.67C413.882 244.645 415.124 243.179 416.26 242.27C417.428 241.363 418.62 240.919 419.835 240.941C421.595 240.971 423.455 241.708 425.414 243.15L422.358 250.442C420.875 249.2 419.478 248.567 418.166 248.545C416.727 248.519 415.417 249.297 414.237 250.876C413.057 252.456 412.45 254.254 412.415 256.269L412.225 267.164L404.402 267.027ZM440.949 251.727L440.975 250.191C440.992 249.231 440.654 248.457 439.96 247.869C439.266 247.281 438.343 246.976 437.191 246.956C435.112 246.92 433.02 247.588 430.915 248.959C430.526 249.24 430.17 249.506 429.845 249.757C429.358 250.196 428.935 250.573 428.577 250.887L428.691 244.36L430.437 243.334C433.182 241.942 436.026 241.271 438.97 241.323C441.913 241.374 444.268 242.183 446.033 243.75C447.83 245.286 448.707 247.285 448.664 249.749L448.483 260.115C448.467 261.075 448.535 261.733 448.689 262.087C448.875 262.411 449.208 262.576 449.688 262.585C450.264 262.595 450.989 262.303 451.864 261.711L451.104 266.738C448.397 267.811 446.324 268.335 444.884 268.31C443.828 268.291 442.983 268.117 442.349 267.786C441.746 267.455 441.228 266.87 440.795 266.03C438.562 267.463 436.309 268.16 434.037 268.121C431.83 268.082 430.017 267.426 428.599 266.153C427.181 264.88 426.489 263.236 426.525 261.22C426.578 258.149 428.298 255.906 431.683 254.493C432.973 253.94 434.261 253.482 435.547 253.121L437.138 252.764L439.116 252.223L440.949 251.727ZM440.682 261.515L440.776 256.092C438.398 256.659 436.691 257.301 435.654 258.019C434.618 258.705 434.09 259.592 434.071 260.68C434.058 261.416 434.303 262.044 434.806 262.565C435.309 263.086 435.929 263.353 436.665 263.366C437.337 263.377 438.011 263.229 438.689 262.921C439.399 262.581 440.063 262.113 440.682 261.515ZM456.211 267.931L456.66 242.207L464.434 242.343L463.985 268.067L456.211 267.931ZM456.562 236.781C456.585 235.469 457.004 234.372 457.82 233.49C458.636 232.608 459.635 232.178 460.819 232.198C461.971 232.219 462.939 232.668 463.724 233.545C464.509 234.423 464.89 235.502 464.868 236.782C464.85 237.806 464.434 238.679 463.622 239.4C462.809 240.122 461.827 240.473 460.675 240.453C459.523 240.433 458.537 240.08 457.717 239.393C456.929 238.676 456.544 237.805 456.562 236.781ZM471.357 268.196L471.806 242.472L479.629 242.608L479.567 246.16C482.014 243.482 484.71 242.169 487.653 242.22C490.245 242.266 492.31 243.102 493.85 244.729C495.39 246.356 496.136 248.529 496.089 251.249L495.786 268.622L487.963 268.486L488.226 253.416C488.241 252.552 488.157 251.831 487.976 251.251C487.797 250.48 487.392 249.865 486.76 249.406C486.16 248.915 485.444 248.663 484.612 248.648C482.885 248.618 481.171 249.612 479.472 251.631L479.18 268.332L471.357 268.196ZM503.144 268.751L503.593 243.027L511.368 243.162L510.919 268.886L503.144 268.751ZM503.496 237.6C503.519 236.288 503.938 235.191 504.754 234.31C505.569 233.428 506.569 232.997 507.753 233.018C508.904 233.038 509.873 233.487 510.657 234.365C511.442 235.242 511.823 236.321 511.801 237.601C511.783 238.625 511.368 239.498 510.555 240.22C509.743 240.942 508.76 241.293 507.608 241.272C506.457 241.252 505.471 240.899 504.65 240.213C503.863 239.495 503.478 238.624 503.496 237.6ZM518.291 269.015L518.74 243.291L526.563 243.428L526.501 246.979C528.948 244.301 531.643 242.988 534.587 243.04C537.178 243.085 539.244 243.921 540.784 245.548C542.324 247.175 543.07 249.349 543.022 252.068L542.719 269.441L534.896 269.305L535.159 254.235C535.174 253.371 535.091 252.65 534.909 252.071C534.73 251.299 534.325 250.684 533.693 250.225C533.093 249.734 532.378 249.482 531.546 249.467C529.818 249.437 528.105 250.432 526.405 252.45L526.114 269.152L518.291 269.015ZM553.583 269.535C551.804 268.768 550.929 267.552 550.958 265.889C550.994 263.841 552.458 262.442 555.352 261.693C551.123 260.115 549.045 257.246 549.117 253.087C549.166 250.303 550.214 248.001 552.262 246.18C554.31 244.36 556.886 243.477 559.99 243.531C560.821 243.545 561.365 243.587 561.62 243.655C561.875 243.692 562.433 243.83 563.293 244.069L572.987 244.238L572.905 248.941L569.066 248.874C569.724 249.654 570.206 250.446 570.512 251.252C570.819 252.025 570.964 252.876 570.948 253.804C570.909 256.011 570.173 257.871 568.738 259.382C567.304 260.893 565.285 261.93 562.683 262.493L560.901 262.798C559.294 263.186 558.483 263.844 558.467 264.772C558.458 265.252 558.612 265.622 558.927 265.884C559.275 266.114 559.736 266.314 560.309 266.484C560.883 266.622 561.92 266.816 563.419 267.066C569.195 268.063 572.049 270.498 571.981 274.369C571.938 276.865 570.752 278.796 568.424 280.164C566.127 281.564 562.979 282.229 558.979 282.159C555.396 282.097 552.543 281.439 550.42 280.186C548.33 278.933 547.303 277.267 547.339 275.187C547.363 273.843 547.928 272.653 549.034 271.616C550.171 270.612 551.688 269.918 553.583 269.535ZM560.042 248.765C558.89 248.745 557.923 249.144 557.141 249.962C556.359 250.781 555.957 251.782 555.936 252.966C555.915 254.213 556.28 255.292 557.032 256.201C557.817 257.079 558.769 257.528 559.889 257.547C561.073 257.568 562.072 257.153 562.887 256.303C563.702 255.454 564.121 254.389 564.143 253.109C564.164 251.925 563.781 250.91 562.996 250.064C562.211 249.219 561.226 248.785 560.042 248.765ZM559.486 272.375L556.95 271.898C555.11 272.794 554.18 273.818 554.16 274.97C554.146 275.77 554.631 276.434 555.613 276.964C556.596 277.493 557.888 277.771 559.487 277.799C561.055 277.827 562.355 277.609 563.387 277.147C564.42 276.685 564.942 276.086 564.955 275.35C564.965 274.775 564.749 274.307 564.307 273.947C563.898 273.588 563.167 273.271 562.116 272.997L559.486 272.375Z" fill="white"/>
</g>
<defs>
<filter id="filter0_d_3005_55163" x="140.1" y="0.479004" width="452.966" height="190.073" filterUnits="userSpaceOnUse" color-interpolation-filters="sRGB">
<feFlood flood-opacity="0" result="BackgroundImageFix"/>
<feColorMatrix in="SourceAlpha" type="matrix" values="0 0 0 0 0 0 0 0 0 0 0 0 0 0 0 0 0 0 127 0" result="hardAlpha"/>
<feOffset dx="18.7672" dy="18.7672"/>
<feGaussianBlur stdDeviation="3.12786"/>
<feComposite in2="hardAlpha" operator="out"/>
<feColorMatrix type="matrix" values="0 0 0 0 0 0 0 0 0 0 0 0 0 0 0 0 0 0 0.4 0"/>
<feBlend mode="normal" in2="BackgroundImageFix" result="effect1_dropShadow_3005_55163"/>
<feBlend mode="normal" in="SourceGraphic" in2="effect1_dropShadow_3005_55163" result="shape"/>
</filter>
<filter id="filter1_d_3005_55163" x="0.464355" y="144.499" width="732.237" height="170.307" filterUnits="userSpaceOnUse" color-interpolation-filters="sRGB">
<feFlood flood-opacity="0" result="BackgroundImageFix"/>
<feColorMatrix in="SourceAlpha" type="matrix" values="0 0 0 0 0 0 0 0 0 0 0 0 0 0 0 0 0 0 127 0" result="hardAlpha"/>
<feOffset dx="18.7672" dy="18.7672"/>
<feGaussianBlur stdDeviation="3.12786"/>
<feComposite in2="hardAlpha" operator="out"/>
<feColorMatrix type="matrix" values="0 0 0 0 0 0 0 0 0 0 0 0 0 0 0 0 0 0 0.4 0"/>
<feBlend mode="normal" in2="BackgroundImageFix" result="effect1_dropShadow_3005_55163"/>
<feBlend mode="normal" in="SourceGraphic" in2="effect1_dropShadow_3005_55163" result="shape"/>
</filter>
</defs>
</svg>
