<svg width="838" height="514" viewBox="0 0 838 514" fill="none" xmlns="http://www.w3.org/2000/svg">
<g filter="url(#filter0_d_3015_39215)">
<rect x="229.072" y="16.041" width="349" height="146" transform="rotate(-2.47 229.072 16.041)" fill="#2395DD" shape-rendering="crispEdges"/>
<rect x="229.072" y="16.041" width="349" height="146" transform="rotate(-2.47 229.072 16.041)" stroke="black" shape-rendering="crispEdges"/>
<path d="M331.997 53.9502L332.67 69.5557C328.549 67.6048 324.858 66.2593 321.596 65.5192C318.335 64.7791 314.762 64.4928 310.879 64.6603C303.186 64.9921 296.988 67.645 292.285 72.619C287.582 77.593 285.393 83.8532 285.718 91.3995C286.037 98.7993 288.716 104.739 293.754 109.22C298.791 113.7 305.193 115.773 312.959 115.438C317.062 115.261 320.848 114.547 324.318 113.296C327.787 112.046 331.516 110.013 335.505 107.199L336.207 123.463C331.619 126.01 327.331 127.847 323.342 128.973C319.427 130.096 315.052 130.762 310.216 130.97C297.761 131.508 287.418 128.247 279.186 121.189C270.954 114.13 266.584 104.703 266.075 92.9074C265.55 80.7454 269.147 70.5342 276.865 62.274C284.583 54.0137 294.706 49.6133 307.234 49.0729C311.703 48.8801 315.752 49.1459 319.38 49.8702C323.004 50.5213 327.21 51.8813 331.997 53.9502ZM351.306 127.877L347.888 48.6405L366.9 47.8203L370.318 127.057L351.306 127.877ZM374.963 47.4725L395.624 46.5813L415.056 91.2153L416.292 94.355C416.623 95.2215 416.839 95.9829 416.941 96.6391C417.116 97.2922 417.23 98.2415 417.284 99.487C417.384 96.6934 417.885 93.8459 418.787 90.9443L432.44 44.9932L452.881 44.1115L423.659 124.756L412.01 125.258L374.963 47.4725ZM464.359 123L460.941 43.7638L479.953 42.9436L483.371 122.18L464.359 123ZM500.226 121.453L496.808 42.2166L515.82 41.3965L518.631 106.566L552.26 105.115L552.867 119.182L500.226 121.453Z" fill="white"/>
</g>
<g filter="url(#filter1_d_3015_39215)">
<rect x="14.1606" y="125.905" width="801" height="151" transform="rotate(5 14.1606 125.905)" fill="#EC4E24" shape-rendering="crispEdges"/>
<rect x="14.1606" y="125.905" width="801" height="151" transform="rotate(5 14.1606 125.905)" stroke="black" shape-rendering="crispEdges"/>
<path d="M39.8787 245.602L46.7911 166.594L65.7487 168.253L58.8363 247.261L39.8787 245.602ZM75.6425 248.731L82.5549 169.723L99.7591 171.228L134.628 221.98C135.803 223.703 136.434 225.745 136.522 228.109L141.181 174.852L159.919 176.492L153.007 255.5L135.803 253.995L100.524 202.875C99.5494 201.391 99.0485 199.544 99.0211 197.333L94.381 250.371L75.6425 248.731ZM169.621 256.953L176.534 177.945L193.738 179.45L228.607 230.202C229.782 231.925 230.413 233.967 230.5 236.331L235.16 183.074L253.898 184.714L246.986 263.722L229.782 262.217L194.503 211.097C193.528 209.613 193.027 207.766 193 205.555L188.36 258.593L169.621 256.953ZM264.97 225.544C266.018 213.563 270.637 204.103 278.826 197.164C287.095 190.158 297.146 187.172 308.981 188.208C320.816 189.243 330.16 193.925 337.014 202.254C343.947 210.517 346.889 220.638 345.841 232.619C344.793 244.6 340.174 254.06 331.985 261C323.795 267.939 313.747 270.888 301.839 269.846C290.004 268.81 280.62 264.162 273.687 255.899C266.834 247.57 263.928 237.452 264.97 225.544ZM307.62 203.768C301.191 203.206 295.763 205.087 291.336 209.411C286.989 213.668 284.482 219.595 283.818 227.193C283.159 234.718 284.598 240.99 288.134 246.011C291.749 250.965 296.771 253.723 303.2 254.285C309.556 254.841 314.944 252.994 319.365 248.743C323.785 244.492 326.318 238.677 326.964 231.299C327.635 223.628 326.203 217.283 322.667 212.262C319.137 207.168 314.122 204.337 307.62 203.768ZM351.338 193.238L371.939 195.041L385.403 241.822L386.221 245.096C386.436 245.998 386.552 246.781 386.567 247.445C386.656 248.115 386.646 249.072 386.537 250.313C386.999 247.557 387.866 244.798 389.138 242.039L408.649 198.253L429.031 200.036L389.573 276.197L377.957 275.18L351.338 193.238ZM412.097 278.167L451.117 201.968L470.512 203.665L496.694 285.568L476.092 283.766L471.251 265.896L440.35 263.193L432.589 279.96L412.097 278.167ZM457.564 226.714L446.035 251.213L467.404 253.082L460.194 226.944C459.792 225.658 459.529 224.457 459.405 223.342C459.288 222.154 459.297 220.793 459.431 219.258C459.156 222.4 458.534 224.885 457.564 226.714ZM490.368 219.425L491.586 205.509L557.882 211.309L556.646 225.445L533.086 223.384L527.41 288.256L508.452 286.597L514.147 221.506L490.368 219.425ZM559.577 291.07L566.49 212.062L585.447 213.72L578.535 292.729L559.577 291.07ZM596.71 254.567C597.759 242.587 602.377 233.126 610.567 226.187C618.835 219.181 628.887 216.196 640.722 217.231C652.557 218.267 661.901 222.949 668.754 231.278C675.687 239.54 678.63 249.662 677.581 261.643C676.533 273.624 671.914 283.084 663.725 290.023C655.536 296.962 645.487 299.911 633.579 298.869C621.745 297.834 612.361 293.185 605.428 284.923C598.574 276.594 595.669 266.475 596.71 254.567ZM639.36 232.792C632.932 232.229 627.504 234.11 623.077 238.434C618.729 242.691 616.223 248.619 615.558 256.216C614.9 263.741 616.339 270.014 619.875 275.034C623.49 279.988 628.512 282.746 634.941 283.309C641.297 283.865 646.685 282.017 651.105 277.767C655.526 273.516 658.059 267.701 658.705 260.323C659.376 252.652 657.943 246.306 654.407 241.286C650.878 236.192 645.862 233.361 639.36 232.792ZM688.678 302.365L695.59 223.357L712.794 224.862L747.664 275.614C748.838 277.336 749.469 279.379 749.557 281.742L754.216 228.486L772.955 230.125L766.042 309.133L748.838 307.628L713.559 256.509C712.585 255.025 712.084 253.178 712.056 250.967L707.416 304.004L688.678 302.365Z" fill="white"/>
</g>
<g filter="url(#filter2_d_3015_39215)">
<rect x="28.2593" y="342.508" width="751" height="146" transform="rotate(-2.47 28.2593 342.508)" fill="#FCB342" shape-rendering="crispEdges"/>
<rect x="28.2593" y="342.508" width="751" height="146" transform="rotate(-2.47 28.2593 342.508)" stroke="black" shape-rendering="crispEdges"/>
<path d="M131.477 380.404L132.15 396.01C128.029 394.059 124.338 392.714 121.076 391.973C117.814 391.233 114.242 390.947 110.359 391.114C102.666 391.446 96.468 394.099 91.7647 399.073C87.0613 404.047 84.8724 410.307 85.1979 417.854C85.5171 425.253 88.1956 431.194 93.2334 435.674C98.2711 440.154 104.673 442.227 112.439 441.892C116.542 441.715 120.328 441.001 123.797 439.75C127.267 438.5 130.996 436.467 134.985 433.653L135.687 449.918C131.099 452.464 126.811 454.301 122.822 455.427C118.907 456.55 114.532 457.216 109.696 457.425C97.241 457.962 86.8975 454.701 78.6657 447.643C70.4338 440.584 66.0635 431.157 65.5547 419.362C65.03 407.2 68.6266 396.988 76.3445 388.728C84.0623 380.468 94.1854 376.067 106.714 375.527C111.183 375.334 115.232 375.6 118.859 376.324C122.484 376.975 126.69 378.335 131.477 380.404ZM150.786 454.331L147.368 375.095L166.38 374.275L167.769 406.475L203.046 404.953L201.657 372.753L220.669 371.933L224.087 451.169L205.185 451.984L203.749 418.685L168.361 420.212L169.798 453.511L150.786 454.331ZM232.828 450.792L261.61 370.167L281.062 369.328L317.669 447.132L297.008 448.023L289.885 430.935L258.894 432.271L253.379 449.905L232.828 450.792ZM271.22 393.864L262.974 419.654L284.404 418.729L273.858 393.751C273.291 392.527 272.874 391.371 272.607 390.281C272.337 389.119 272.168 387.768 272.102 386.229C272.238 389.38 271.944 391.925 271.22 393.864ZM326.407 446.755L322.989 367.519L342.002 366.699L344.813 431.868L378.442 430.418L379.048 444.485L326.407 446.755ZM389.964 444.014L386.546 364.777L405.558 363.957L408.369 429.127L441.998 427.676L442.605 441.743L389.964 444.014ZM453.52 441.272L450.102 362.036L499.995 359.884L500.593 373.731L469.711 375.063L470.498 393.306L499.511 392.054L500.09 405.462L471.077 406.713L471.939 426.715L503.59 425.349L504.183 439.087L453.52 441.272ZM518.149 438.484L514.731 359.248L531.985 358.504L573.157 404.292C574.545 405.847 575.436 407.79 575.83 410.122L573.526 356.712L592.319 355.901L595.737 435.137L578.483 435.882L536.858 389.783C535.699 388.438 534.962 386.672 534.647 384.483L536.942 437.674L518.149 438.484ZM676.524 356.343L677.183 371.618L672.358 369.514C666.832 367.33 661.028 366.37 654.947 366.632C646.595 366.992 639.959 369.701 635.039 374.757C630.119 379.814 627.831 386.336 628.176 394.321C628.508 402.014 631.229 408.099 636.34 412.577C641.451 417.054 648 419.12 655.986 418.776C657.085 418.728 658.072 418.649 658.948 418.538C659.824 418.427 661.57 418.058 664.185 417.431L663.626 404.463L653.845 404.885L653.257 391.258L681.171 390.054L682.849 428.957L678.057 430.155C674.062 431.135 669.841 431.977 665.394 432.683C661.02 433.386 657.258 433.805 654.107 433.941C641.139 434.5 630.431 431.292 621.983 424.316C613.604 417.264 609.158 407.767 608.643 395.825C608.121 383.736 611.756 373.56 619.547 365.296C627.338 357.033 637.498 352.631 650.026 352.091C654.495 351.898 658.725 352.119 662.717 352.754C666.708 353.39 671.31 354.586 676.524 356.343ZM699.674 430.654L696.256 351.418L746.149 349.265L746.747 363.112L715.865 364.445L716.652 382.688L745.665 381.436L746.244 394.844L717.231 396.095L718.093 416.097L749.744 414.731L750.336 428.469L699.674 430.654Z" fill="white"/>
</g>
<defs>
<filter id="filter0_d_3015_39215" x="228.551" y="0.479492" width="381.033" height="186.97" filterUnits="userSpaceOnUse" color-interpolation-filters="sRGB">
<feFlood flood-opacity="0" result="BackgroundImageFix"/>
<feColorMatrix in="SourceAlpha" type="matrix" values="0 0 0 0 0 0 0 0 0 0 0 0 0 0 0 0 0 0 127 0" result="hardAlpha"/>
<feOffset dx="18.7672" dy="18.7672"/>
<feGaussianBlur stdDeviation="3.12786"/>
<feComposite in2="hardAlpha" operator="out"/>
<feColorMatrix type="matrix" values="0 0 0 0 0 0 0 0 0 0 0 0 0 0 0 0 0 0 0.4 0"/>
<feBlend mode="normal" in2="BackgroundImageFix" result="effect1_dropShadow_3015_39215"/>
<feBlend mode="normal" in="SourceGraphic" in2="effect1_dropShadow_3015_39215" result="shape"/>
</filter>
<filter id="filter1_d_3015_39215" x="0.458496" y="125.363" width="837.219" height="246.344" filterUnits="userSpaceOnUse" color-interpolation-filters="sRGB">
<feFlood flood-opacity="0" result="BackgroundImageFix"/>
<feColorMatrix in="SourceAlpha" type="matrix" values="0 0 0 0 0 0 0 0 0 0 0 0 0 0 0 0 0 0 127 0" result="hardAlpha"/>
<feOffset dx="18.7672" dy="18.7672"/>
<feGaussianBlur stdDeviation="3.12786"/>
<feComposite in2="hardAlpha" operator="out"/>
<feColorMatrix type="matrix" values="0 0 0 0 0 0 0 0 0 0 0 0 0 0 0 0 0 0 0.4 0"/>
<feBlend mode="normal" in2="BackgroundImageFix" result="effect1_dropShadow_3015_39215"/>
<feBlend mode="normal" in="SourceGraphic" in2="effect1_dropShadow_3015_39215" result="shape"/>
</filter>
<filter id="filter2_d_3015_39215" x="27.7383" y="309.621" width="782.659" height="204.295" filterUnits="userSpaceOnUse" color-interpolation-filters="sRGB">
<feFlood flood-opacity="0" result="BackgroundImageFix"/>
<feColorMatrix in="SourceAlpha" type="matrix" values="0 0 0 0 0 0 0 0 0 0 0 0 0 0 0 0 0 0 127 0" result="hardAlpha"/>
<feOffset dx="18.7672" dy="18.7672"/>
<feGaussianBlur stdDeviation="3.12786"/>
<feComposite in2="hardAlpha" operator="out"/>
<feColorMatrix type="matrix" values="0 0 0 0 0 0 0 0 0 0 0 0 0 0 0 0 0 0 0.4 0"/>
<feBlend mode="normal" in2="BackgroundImageFix" result="effect1_dropShadow_3015_39215"/>
<feBlend mode="normal" in="SourceGraphic" in2="effect1_dropShadow_3015_39215" result="shape"/>
</filter>
</defs>
</svg>
