<svg width="350" height="621" viewBox="0 0 350 621" fill="none" xmlns="http://www.w3.org/2000/svg">
<g filter="url(#filter0_d_996_44580)">
<path d="M32.8462 17.4471L11.8462 27.9871V59.2971L0 117.267L11.8462 166.557L0 225.457L11.8462 275.987L0 329.617L11.8462 395.647L0 449.277V545.408L21.8077 591.16L47.3846 602.63L70.2692 591.16L99.3461 602.63L126.808 591.16L172.308 611L245 591.16L298.5 602.63L331.5 565.513L339 516.54L331.5 474.268L339 411.892L331.5 363.949L339 289.716L331.5 234.557L345 180.428L331.5 126.3L345 73.2023L331.5 17.4471L298.5 0L269.231 17.4471L239.885 4.73712L212.692 10.9371L119.538 4.73712L93.9615 17.4471H32.8462Z" fill="#443F38"/>
</g>
<defs>
<filter id="filter0_d_996_44580" x="0" y="0" width="350" height="621" filterUnits="userSpaceOnUse" color-interpolation-filters="sRGB">
<feFlood flood-opacity="0" result="BackgroundImageFix"/>
<feColorMatrix in="SourceAlpha" type="matrix" values="0 0 0 0 0 0 0 0 0 0 0 0 0 0 0 0 0 0 127 0" result="hardAlpha"/>
<feOffset dx="5" dy="10"/>
<feComposite in2="hardAlpha" operator="out"/>
<feColorMatrix type="matrix" values="0 0 0 0 0 0 0 0 0 0 0 0 0 0 0 0 0 0 0.25 0"/>
<feBlend mode="normal" in2="BackgroundImageFix" result="effect1_dropShadow_996_44580"/>
<feBlend mode="normal" in="SourceGraphic" in2="effect1_dropShadow_996_44580" result="shape"/>
</filter>
</defs>
</svg>
