<svg width="348" height="553" viewBox="0 0 348 553" fill="none" xmlns="http://www.w3.org/2000/svg">
<g filter="url(#filter0_d_3197_35062)">
<path d="M32.8462 15.6767L11.8462 25.1472V53.28L0 105.368L11.8462 149.656L0 202.579L11.8462 247.982L0 296.17L11.8462 355.499L1 406L11.8462 454L6.34615 495.564L21.8077 531.173L47.3846 541.479L70.2692 531.173L99.3461 541.479L126.808 531.173L172.308 549L245 531.173L298.5 541.479L331.5 508.129L339 464.125L331.5 426.143L339 370.096L331.5 327.018L339 260.318L331.5 210.755L345 162.12L331.5 113.484L345 65.7742L331.5 15.6767L298.5 0L269.231 15.6767L239.885 4.25643L212.692 9.82729L119.538 4.25643L93.9615 15.6767H32.8462Z" fill="#A1947C"/>
</g>
<defs>
<filter id="filter0_d_3197_35062" x="0" y="0" width="347.123" height="552.538" filterUnits="userSpaceOnUse" color-interpolation-filters="sRGB">
<feFlood flood-opacity="0" result="BackgroundImageFix"/>
<feColorMatrix in="SourceAlpha" type="matrix" values="0 0 0 0 0 0 0 0 0 0 0 0 0 0 0 0 0 0 127 0" result="hardAlpha"/>
<feOffset dx="2.12267" dy="3.53778"/>
<feComposite in2="hardAlpha" operator="out"/>
<feColorMatrix type="matrix" values="0 0 0 0 0 0 0 0 0 0 0 0 0 0 0 0 0 0 0.25 0"/>
<feBlend mode="normal" in2="BackgroundImageFix" result="effect1_dropShadow_3197_35062"/>
<feBlend mode="normal" in="SourceGraphic" in2="effect1_dropShadow_3197_35062" result="shape"/>
</filter>
</defs>
</svg>
