<svg width="375" height="547" viewBox="0 0 375 547" fill="none" xmlns="http://www.w3.org/2000/svg">
<g filter="url(#filter0_d_3208_2038)">
<path d="M108.181 24.7448L54.6488 6.44598L45.9744 38.8907L2.89147 32.8745L30.9388 84.6572L5.20465 119.251L30.9388 160.72L0.289147 200.255L25.445 232.915L5.20465 275.243L25.445 305.969L2.89147 350.017L30.9388 384.395L0 426.939L35.276 444.128L11.5659 483.448L47.7093 485.167V517.397L82.1178 507.943L115.659 525.777L150.067 500.992L181.585 529L221.25 507.728L257.341 524.273L292.906 500.992L332.809 518.686L335.7 485.167H373L343.849 432.457L373 415.98L349.975 382.032L367.795 353.669L343.849 326.811L367.795 273.739L346.398 235.063L370.398 197.462L340.616 163.298L367.795 131.068L340.616 97.9789L370.398 45.7665L326.447 38.2461L306.785 4.08245L279.605 24.7448L255.317 0L193.44 27.7177L151.224 3.65272L108.181 24.7448Z" fill="#A1947C"/>
</g>
<path d="M159.991 183.05L135.724 145.508L126.147 130.691L111.704 108.347L105.186 131.271L109.651 138.156L119.311 153.054L134.243 176.082L159.991 183.05Z" fill="#D9D9D9"/>
<path d="M159.991 183.05L135.724 145.508L126.147 130.691L111.704 108.347L105.186 131.271L109.651 138.156L119.311 153.054L134.243 176.082L159.991 183.05Z" fill="url(#paint0_linear_3208_2038)"/>
<path d="M159.991 183.05L135.724 145.508L126.147 130.691L111.704 108.347L105.186 131.271L109.651 138.156L119.311 153.054L134.243 176.082L159.991 183.05Z" stroke="black"/>
<path d="M80.8203 152.158L74.2249 175.356L95.633 164.877L105.188 131.271L111.705 108.347L98.6018 89.6146L80.8203 152.158Z" fill="#D9D9D9"/>
<path d="M80.8203 152.158L74.2249 175.356L95.633 164.877L105.188 131.271L111.705 108.347L98.6018 89.6146L80.8203 152.158Z" fill="url(#paint1_linear_3208_2038)"/>
<path d="M80.8203 152.158L74.2249 175.356L95.633 164.877L105.188 131.271L111.705 108.347L98.6018 89.6146L80.8203 152.158Z" stroke="black"/>
<path d="M74.2243 175.356L44.7299 130.525L60.9209 123.079L80.8197 152.158L74.2243 175.356Z" fill="#D9D9D9"/>
<path d="M74.2243 175.356L44.7299 130.525L60.9209 123.079L80.8197 152.158L74.2243 175.356Z" fill="url(#paint2_linear_3208_2038)"/>
<path d="M74.2243 175.356L44.7299 130.525L60.9209 123.079L80.8197 152.158L74.2243 175.356Z" stroke="black"/>
<path d="M88.4241 110.43L94.6464 88.5444L51.0338 108.348L44.729 130.524L88.4241 110.43Z" fill="url(#paint3_linear_3208_2038)" stroke="black"/>
<path opacity="0.6" d="M74.2226 175.355L44.7282 130.524L60.9192 123.078L80.818 152.157L74.2226 175.355Z" fill="url(#paint4_linear_3208_2038)" stroke="black"/>
<path opacity="0.4" d="M159.989 183.049L135.722 145.507L126.145 130.691L111.702 108.347L105.184 131.27L109.649 138.155L119.309 153.054L134.241 176.082L159.989 183.049Z" fill="url(#paint5_linear_3208_2038)" stroke="black"/>
<path opacity="0.7" d="M74.2226 175.355L44.7282 130.524L60.9192 123.078L80.818 152.157L74.2226 175.355Z" fill="url(#paint6_linear_3208_2038)" stroke="black"/>
<path d="M105.683 139.951L99.3476 162.234L119.312 153.054L135.725 145.508L143.002 142.161L149.233 120.245L126.148 130.691L109.652 138.156L105.683 139.951Z" fill="url(#paint7_linear_3208_2038)" stroke="black"/>
<path d="M152.671 142.756C167.421 159.056 200.893 186.268 216.777 164.715C232.66 143.162 236.528 130.916 237.743 115.509C238.957 100.102 229.026 72.9105 213.888 92.4294C191.115 121.794 233.255 177.506 253.416 155.008C275.708 130.132 323.834 111.884 305.8 178.699" stroke="white" stroke-width="2" stroke-dasharray="8 8"/>
<path d="M297.295 171L299.78 192.801L318 180.291" stroke="white" stroke-width="2" stroke-linecap="round" stroke-dasharray="4 4"/>
<defs>
<filter id="filter0_d_3208_2038" x="0" y="0" width="388" height="547" filterUnits="userSpaceOnUse" color-interpolation-filters="sRGB">
<feFlood flood-opacity="0" result="BackgroundImageFix"/>
<feColorMatrix in="SourceAlpha" type="matrix" values="0 0 0 0 0 0 0 0 0 0 0 0 0 0 0 0 0 0 127 0" result="hardAlpha"/>
<feOffset dx="15" dy="18"/>
<feComposite in2="hardAlpha" operator="out"/>
<feColorMatrix type="matrix" values="0 0 0 0 0 0 0 0 0 0 0 0 0 0 0 0 0 0 0.25 0"/>
<feBlend mode="normal" in2="BackgroundImageFix" result="effect1_dropShadow_3208_2038"/>
<feBlend mode="normal" in="SourceGraphic" in2="effect1_dropShadow_3208_2038" result="shape"/>
</filter>
<linearGradient id="paint0_linear_3208_2038" x1="143.983" y1="117.083" x2="128.442" y2="174.512" gradientUnits="userSpaceOnUse">
<stop stop-color="#524D45"/>
<stop offset="1" stop-color="#756B58"/>
</linearGradient>
<linearGradient id="paint1_linear_3208_2038" x1="107.158" y1="91.93" x2="83.8755" y2="177.967" gradientUnits="userSpaceOnUse">
<stop stop-color="#524D45"/>
<stop offset="1" stop-color="#756B58"/>
</linearGradient>
<linearGradient id="paint2_linear_3208_2038" x1="67.4636" y1="124.849" x2="55.1899" y2="170.205" gradientUnits="userSpaceOnUse">
<stop stop-color="#524D45"/>
<stop offset="1" stop-color="#756B58"/>
</linearGradient>
<linearGradient id="paint3_linear_3208_2038" x1="77.012" y1="83.7723" x2="63.021" y2="135.474" gradientUnits="userSpaceOnUse">
<stop stop-color="#524D45"/>
<stop offset="1" stop-color="#756B58"/>
</linearGradient>
<linearGradient id="paint4_linear_3208_2038" x1="53.7553" y1="123.335" x2="55.1446" y2="127.457" gradientUnits="userSpaceOnUse">
<stop/>
<stop offset="1" stop-opacity="0"/>
</linearGradient>
<linearGradient id="paint5_linear_3208_2038" x1="92.1234" y1="116.822" x2="112.73" y2="121.307" gradientUnits="userSpaceOnUse">
<stop offset="0.665919"/>
<stop offset="0.830561" stop-opacity="0"/>
</linearGradient>
<linearGradient id="paint6_linear_3208_2038" x1="81.2531" y1="162.728" x2="74.3517" y2="160.31" gradientUnits="userSpaceOnUse">
<stop/>
<stop offset="0.572628" stop-opacity="0"/>
</linearGradient>
<linearGradient id="paint7_linear_3208_2038" x1="131.615" y1="115.478" x2="117.624" y2="167.179" gradientUnits="userSpaceOnUse">
<stop offset="0.254" stop-color="#E1D6C6"/>
<stop offset="1" stop-color="#A1947C"/>
</linearGradient>
</defs>
</svg>
