<svg width="1246" height="663" viewBox="0 0 1246 663" fill="none" xmlns="http://www.w3.org/2000/svg">
<g filter="url(#filter0_d_3208_2036)">
<path d="M57.582 457.931L15 550.5L90.5 565.5L76.5 640L197 591.5L277.5 636L374 591.5L466 644.5L542 601L640.5 636L712 601L814.5 640L894.5 591.5L993.5 645L1033.5 584L1125 625L1129 562.5H1204L1182 503L1223.5 445L1165.82 385.5L1231 331L1181.5 262.409L1220 200L1165.82 138.5L1207 69.5L1129 64.5V0L1006.34 50.4091L968 0L889 39.816L823 9L760.5 50.4091L637 9L547 46L459.5 4.5L380 56L305 9L228 56L106.5 4.5L89 80.5L9.5 114.5L57.582 161.5L0 203.5L64.5 310.5L8.5 383.5L57.582 457.931Z" fill="#A1947C"/>
</g>
<path d="M252.583 190.18C332.532 221.307 511.784 275.435 589.197 242.933C666.611 210.432 685.633 172.861 688.5 147.147C691.367 121.434 636.213 40.7306 558.5 99.562C470.5 166.181 694.995 353.877 874 190.18C1002 73.1258 1131.49 179.928 1052.99 288.317" stroke="white" stroke-width="4" stroke-dasharray="8 8"/>
<path d="M1041.7 283.558L1028.96 307.392L1055.18 302.843" stroke="white" stroke-width="4" stroke-linecap="round" stroke-dasharray="8 8"/>
<path d="M254.288 223.292L234.211 183.352L226.287 167.59L214.337 143.819L205.386 165.905L209.082 173.232L217.08 189.085L229.442 213.589L254.288 223.292Z" fill="#D9D9D9"/>
<path d="M254.288 223.292L234.211 183.352L226.287 167.59L214.337 143.819L205.386 165.905L209.082 173.232L217.08 189.085L229.442 213.589L254.288 223.292Z" fill="url(#paint0_linear_3208_2036)"/>
<path d="M254.288 223.292L234.211 183.352L226.287 167.59L214.337 143.819L205.386 165.905L209.082 173.232L217.08 189.085L229.442 213.589L254.288 223.292Z" stroke="black"/>
<path d="M178.91 184.043L169.852 206.395L192.265 198.286L205.388 165.906L214.339 143.819L203.332 123.782L178.91 184.043Z" fill="#D9D9D9"/>
<path d="M178.91 184.043L169.852 206.395L192.265 198.286L205.388 165.906L214.339 143.819L203.332 123.782L178.91 184.043Z" fill="url(#paint1_linear_3208_2036)"/>
<path d="M178.91 184.043L169.852 206.395L192.265 198.286L205.388 165.906L214.339 143.819L203.332 123.782L178.91 184.043Z" stroke="black"/>
<path d="M169.851 206.395L145.363 158.645L162.262 152.988L178.909 184.043L169.851 206.395Z" fill="#D9D9D9"/>
<path d="M169.851 206.395L145.363 158.645L162.262 152.988L178.909 184.043L169.851 206.395Z" fill="url(#paint2_linear_3208_2036)"/>
<path d="M169.851 206.395L145.363 158.645L162.262 152.988L178.909 184.043L169.851 206.395Z" stroke="black"/>
<path d="M190.969 143.379L199.515 122.292L154.021 137.277L145.362 158.644L190.969 143.379Z" fill="url(#paint3_linear_3208_2036)" stroke="black"/>
<path opacity="0.6" d="M169.849 206.394L145.361 158.644L162.26 152.988L178.908 184.043L169.849 206.394Z" fill="url(#paint4_linear_3208_2036)" stroke="black"/>
<path opacity="0.4" d="M254.286 223.291L234.209 183.352L226.285 167.589L214.335 143.818L205.384 165.905L209.08 173.231L217.078 189.084L229.44 213.588L254.286 223.291Z" fill="url(#paint5_linear_3208_2036)" stroke="black"/>
<path opacity="0.7" d="M169.849 206.394L145.361 158.644L162.26 152.988L178.908 184.043L169.849 206.394Z" fill="url(#paint6_linear_3208_2036)" stroke="black"/>
<path d="M204.944 174.589L196.243 196.058L217.081 189.085L234.211 183.352L241.807 180.81L250.365 159.694L226.288 167.59L209.083 173.232L204.944 174.589Z" fill="url(#paint7_linear_3208_2036)" stroke="black"/>
<defs>
<filter id="filter0_d_3208_2036" x="0" y="0" width="1246" height="663" filterUnits="userSpaceOnUse" color-interpolation-filters="sRGB">
<feFlood flood-opacity="0" result="BackgroundImageFix"/>
<feColorMatrix in="SourceAlpha" type="matrix" values="0 0 0 0 0 0 0 0 0 0 0 0 0 0 0 0 0 0 127 0" result="hardAlpha"/>
<feOffset dx="15" dy="18"/>
<feComposite in2="hardAlpha" operator="out"/>
<feColorMatrix type="matrix" values="0 0 0 0 0 0 0 0 0 0 0 0 0 0 0 0 0 0 0.25 0"/>
<feBlend mode="normal" in2="BackgroundImageFix" result="effect1_dropShadow_3208_2036"/>
<feBlend mode="normal" in="SourceGraphic" in2="effect1_dropShadow_3208_2036" result="shape"/>
</filter>
<linearGradient id="paint0_linear_3208_2036" x1="245.487" y1="155.984" x2="223.844" y2="211.402" gradientUnits="userSpaceOnUse">
<stop stop-color="#524D45"/>
<stop offset="1" stop-color="#756B58"/>
</linearGradient>
<linearGradient id="paint1_linear_3208_2036" x1="211.588" y1="127.007" x2="179.164" y2="210.032" gradientUnits="userSpaceOnUse">
<stop stop-color="#524D45"/>
<stop offset="1" stop-color="#756B58"/>
</linearGradient>
<linearGradient id="paint2_linear_3208_2036" x1="168.576" y1="155.454" x2="151.483" y2="199.222" gradientUnits="userSpaceOnUse">
<stop stop-color="#524D45"/>
<stop offset="1" stop-color="#756B58"/>
</linearGradient>
<linearGradient id="paint3_linear_3208_2036" x1="182.498" y1="115.646" x2="163.013" y2="165.538" gradientUnits="userSpaceOnUse">
<stop stop-color="#524D45"/>
<stop offset="1" stop-color="#756B58"/>
</linearGradient>
<linearGradient id="paint4_linear_3208_2036" x1="155.111" y1="152.471" x2="156.047" y2="156.719" gradientUnits="userSpaceOnUse">
<stop/>
<stop offset="1" stop-opacity="0"/>
</linearGradient>
<linearGradient id="paint5_linear_3208_2036" x1="193.957" y1="150.133" x2="213.96" y2="156.814" gradientUnits="userSpaceOnUse">
<stop offset="0.665919"/>
<stop offset="0.830561" stop-opacity="0"/>
</linearGradient>
<linearGradient id="paint6_linear_3208_2036" x1="178.2" y1="194.599" x2="171.6" y2="191.45" gradientUnits="userSpaceOnUse">
<stop/>
<stop offset="0.572628" stop-opacity="0"/>
</linearGradient>
<linearGradient id="paint7_linear_3208_2036" x1="233.364" y1="153.054" x2="213.879" y2="202.946" gradientUnits="userSpaceOnUse">
<stop offset="0.254" stop-color="#E1D6C6"/>
<stop offset="1" stop-color="#A1947C"/>
</linearGradient>
</defs>
</svg>
