<svg width="119" height="102" viewBox="0 0 119 102" fill="none" xmlns="http://www.w3.org/2000/svg">
<path d="M27.9725 24.4809L13.6185 43.726C9.68565 48.999 8.2264 55.7125 9.6235 62.1055C11.0602 68.4379 15.195 73.7931 20.9363 76.7568L28.9573 80.8974L45.6162 90.5093L46.6313 91.0318C49.2486 92.3789 52.4636 91.711 54.3653 89.4249L61.8777 79.3817L66.3422 73.3463C70.9372 67.1343 79.3058 65.1387 86.1089 68.6325C89.4197 70.3329 93.2378 70.7832 96.8744 69.9024L112.3 66.166L112.955 66.0175C114.157 65.7448 114.598 64.2501 113.734 63.3797C113.669 63.3138 113.598 63.2541 113.522 63.2011L111.655 61.9009L102.105 56.4579L88.1326 48.2231L86.0727 46.969L85.5666 46.5819C85.3096 46.3853 85.2683 46.0123 85.4755 45.7596L86.1664 45.011L86.8853 44.1485C87.5383 43.461 87.8186 42.4995 87.6359 41.5736L84.8532 27.4727L84.1448 24.3507C83.7564 22.6388 81.587 22.1214 80.4479 23.469L77.3304 27.5118C72.786 32.8521 65.1931 34.3515 59.0487 31.1221L50.6836 26.7255L41.0584 21.636C36.6155 19.2867 31.1049 20.4847 27.9725 24.4809Z" fill="white"/>
<path d="M111.733 64.2644L81.6688 47.5116L69.8036 40.8999L51.9099 30.9291L55.7632 48.8684L61.2864 51.9357L73.238 58.5731L91.7112 68.8322L111.733 64.2644Z" fill="#D9D9D9"/>
<path d="M111.733 64.2644L81.6688 47.5116L69.8036 40.8999L51.9099 30.9291L55.7632 48.8684L61.2864 51.9357L73.238 58.5731L91.7112 68.8322L111.733 64.2644Z" fill="url(#paint0_linear_3143_133973)"/>
<path d="M111.733 64.2644L81.6688 47.5116L69.8036 40.8999L51.9099 30.9291L55.7632 48.8684L61.2864 51.9357L73.238 58.5731L91.7112 68.8322L111.733 64.2644Z" stroke="black"/>
<path d="M46.7463 71.8734L50.6457 90.0277L61.4131 75.1677L55.764 48.8678L51.9107 30.9285L36.2332 22.9285L46.7463 71.8734Z" fill="#D9D9D9"/>
<path d="M46.7463 71.8734L50.6457 90.0277L61.4131 75.1677L55.764 48.8678L51.9107 30.9285L36.2332 22.9285L46.7463 71.8734Z" fill="url(#paint1_linear_3143_133973)"/>
<path d="M46.7463 71.8734L50.6457 90.0277L61.4131 75.1677L55.764 48.8678L51.9107 30.9285L36.2332 22.9285L46.7463 71.8734Z" stroke="black"/>
<path d="M50.6455 90.0281L14.3932 70.2088L22.7096 59.2958L46.7461 71.8738L50.6455 90.0281Z" fill="#D9D9D9"/>
<path d="M50.6455 90.0281L14.3932 70.2088L22.7096 59.2958L46.7461 71.8738L50.6455 90.0281Z" fill="url(#paint2_linear_3143_133973)"/>
<path d="M50.6455 90.0281L14.3932 70.2088L22.7096 59.2958L46.7461 71.8738L50.6455 90.0281Z" stroke="black"/>
<path d="M36.8363 40.7574L33.1574 23.6303L10.6647 52.8543L14.3923 70.2089L36.8363 40.7574Z" fill="url(#paint3_linear_3143_133973)"/>
<path opacity="0.6" d="M50.6441 90.0284L14.3917 70.2092L22.7082 59.2962L46.7446 71.8741L50.6441 90.0284Z" fill="url(#paint4_linear_3143_133973)"/>
<path opacity="0.4" d="M111.732 64.2647L81.6673 47.5119L69.8021 40.9003L51.9084 30.9294L55.7617 48.8688L61.2849 51.9361L73.2365 58.5735L91.7097 68.8326L111.732 64.2647Z" fill="url(#paint5_linear_3143_133973)"/>
<path opacity="0.7" d="M50.6441 90.0284L14.3917 70.2092L22.7082 59.2962L46.7446 71.8741L50.6441 90.0284Z" fill="url(#paint6_linear_3143_133973)"/>
<path d="M59.2376 54.5903L62.9832 72.028L73.2385 58.5725L81.6692 47.511L85.4076 42.606L81.7237 25.455L69.804 40.8993L61.2868 51.9351L59.2376 54.5903Z" fill="url(#paint7_linear_3143_133973)"/>
<defs>
<linearGradient id="paint0_linear_3143_133973" x1="77.0115" y1="25.2024" x2="87.1999" y2="69.8614" gradientUnits="userSpaceOnUse">
<stop stop-color="#524D45"/>
<stop offset="1" stop-color="#756B58"/>
</linearGradient>
<linearGradient id="paint1_linear_3143_133973" x1="42.8867" y1="21.4105" x2="58.1504" y2="88.3156" gradientUnits="userSpaceOnUse">
<stop stop-color="#524D45"/>
<stop offset="1" stop-color="#756B58"/>
</linearGradient>
<linearGradient id="paint2_linear_3143_133973" x1="27.7974" y1="58.1351" x2="35.8439" y2="93.4049" gradientUnits="userSpaceOnUse">
<stop stop-color="#524D45"/>
<stop offset="1" stop-color="#756B58"/>
</linearGradient>
<linearGradient id="paint3_linear_3143_133973" x1="19.4444" y1="26.7587" x2="28.6167" y2="66.9637" gradientUnits="userSpaceOnUse">
<stop stop-color="#524D45"/>
<stop offset="1" stop-color="#756B58"/>
</linearGradient>
<linearGradient id="paint4_linear_3143_133973" x1="17.9308" y1="62.0599" x2="20.3649" y2="64.3601" gradientUnits="userSpaceOnUse">
<stop/>
<stop offset="1" stop-opacity="0"/>
</linearGradient>
<linearGradient id="paint5_linear_3143_133973" x1="41.6612" y1="43.7664" x2="57.291" y2="39.3688" gradientUnits="userSpaceOnUse">
<stop offset="0.665919"/>
<stop offset="0.830561" stop-opacity="0"/>
</linearGradient>
<linearGradient id="paint6_linear_3143_133973" x1="50.8606" y1="78.9035" x2="45.2948" y2="79.7532" gradientUnits="userSpaceOnUse">
<stop/>
<stop offset="0.572628" stop-opacity="0"/>
</linearGradient>
<linearGradient id="paint7_linear_3143_133973" x1="68.023" y1="28.5806" x2="77.1953" y2="68.7856" gradientUnits="userSpaceOnUse">
<stop offset="0.254" stop-color="#E1D6C6"/>
<stop offset="1" stop-color="#A1947C"/>
</linearGradient>
</defs>
</svg>
