<svg width="248" height="249" viewBox="0 0 248 249" fill="none" xmlns="http://www.w3.org/2000/svg">
<g filter="url(#filter0_d_3143_125654)">
<rect x="35.0398" y="7.46448" width="150" height="71" transform="rotate(-2.47 35.0398 7.46448)" fill="#2395DD" shape-rendering="crispEdges"/>
<rect x="35.0398" y="7.46448" width="150" height="71" transform="rotate(-2.47 35.0398 7.46448)" stroke="black" shape-rendering="crispEdges"/>
<path d="M78.9351 26.9988L79.2289 33.8085C77.4305 32.9572 75.8197 32.3701 74.3965 32.0471C72.9732 31.7242 71.4144 31.5992 69.72 31.6723C66.3631 31.8171 63.6585 32.9748 61.6061 35.1452C59.5538 37.3157 58.5986 40.0474 58.7406 43.3403C58.8799 46.5693 60.0487 49.1614 62.247 51.1165C64.4453 53.0715 67.2389 53.976 70.6277 53.8298C72.4181 53.7526 74.0702 53.4411 75.5841 52.8953C77.098 52.3496 78.7252 51.4626 80.4659 50.2345L80.7721 57.3319C78.7701 58.4432 76.8989 59.2446 75.1585 59.736C73.45 60.2261 71.5408 60.5167 69.4307 60.6077C63.9958 60.8421 59.4823 59.4193 55.8902 56.3393C52.2981 53.2592 50.3911 49.1456 50.169 43.9984C49.9401 38.6913 51.5095 34.2355 54.8773 30.631C58.2451 27.0265 62.6625 25.1064 68.1294 24.8706C70.0796 24.7864 71.8462 24.9024 73.4293 25.2185C75.011 25.5026 76.8463 26.096 78.9351 26.9988ZM87.3607 59.2577L85.8692 24.6819L94.1655 24.324L95.657 58.8998L87.3607 59.2577ZM97.6839 24.1722L106.699 23.7833L115.179 43.26L115.718 44.63C115.863 45.0081 115.957 45.3404 116.001 45.6267C116.078 45.9117 116.128 46.3259 116.151 46.8694C116.195 45.6504 116.413 44.4079 116.807 43.1417L122.765 23.0903L131.684 22.7056L118.933 57.8958L113.85 58.1151L97.6839 24.1722ZM136.693 57.1297L135.201 22.5539L143.498 22.196L144.989 56.7718L136.693 57.1297ZM152.344 56.4546L150.853 21.8787L159.149 21.5208L160.376 49.9584L175.05 49.3254L175.315 55.4637L152.344 56.4546Z" fill="white"/>
</g>
<g filter="url(#filter1_d_3143_125654)">
<rect x="80.2439" y="67.3984" width="79" height="71" transform="rotate(12 80.2439 67.3984)" fill="#EC4E24" shape-rendering="crispEdges"/>
<rect x="80.2439" y="67.3984" width="79" height="71" transform="rotate(12 80.2439 67.3984)" stroke="black" shape-rendering="crispEdges"/>
<path d="M83.4271 123.281L90.6225 89.4297L98.7451 91.1561L91.5497 125.008L83.4271 123.281ZM98.7504 126.538L105.946 92.6867L113.317 94.2535L125.72 118.089C126.138 118.898 126.302 119.816 126.215 120.844L131.065 98.0259L139.093 99.7324L131.898 133.584L124.527 132.017L111.965 108.001C111.622 107.306 111.504 106.48 111.609 105.521L106.779 128.245L98.7504 126.538Z" fill="white"/>
</g>
<g filter="url(#filter2_d_3143_125654)">
<rect x="0.571777" y="151.71" width="219" height="71" transform="rotate(-2.47 0.571777 151.71)" fill="#FCB342" shape-rendering="crispEdges"/>
<rect x="0.571777" y="151.71" width="219" height="71" transform="rotate(-2.47 0.571777 151.71)" stroke="black" shape-rendering="crispEdges"/>
<path d="M14.2777 205.169L26.8372 169.987L35.3253 169.621L51.2993 203.572L42.2837 203.961L39.1754 196.504L25.652 197.087L23.2454 204.782L14.2777 205.169ZM31.0307 180.328L27.4324 191.581L36.7837 191.178L32.1817 180.278C31.9344 179.744 31.7525 179.24 31.6359 178.764C31.5179 178.257 31.4445 177.668 31.4155 176.996C31.4748 178.371 31.3465 179.482 31.0307 180.328ZM80.1808 169.704L80.4745 176.514C78.6762 175.662 77.0654 175.075 75.6421 174.752C74.2189 174.429 72.6601 174.304 70.9656 174.377C67.6088 174.522 64.9041 175.68 62.8518 177.85C60.7994 180.021 59.8442 182.752 59.9863 186.045C60.1256 189.274 61.2944 191.866 63.4927 193.822C65.691 195.777 68.4845 196.681 71.8734 196.535C73.6637 196.458 75.3158 196.146 76.8297 195.6C78.3436 195.055 79.9709 194.168 81.7116 192.94L82.0177 200.037C80.0158 201.148 78.1446 201.95 76.4041 202.441C74.6957 202.931 72.7864 203.222 70.6764 203.313C65.2414 203.547 60.7279 202.124 57.1358 199.044C53.5438 195.964 51.6367 191.851 51.4147 186.703C51.1857 181.396 52.7552 176.941 56.123 173.336C59.4908 169.732 63.9081 167.811 69.375 167.576C71.3252 167.491 73.0919 167.607 74.6749 167.924C76.2567 168.208 78.0919 168.801 80.1808 169.704ZM82.4719 173.689L82.2092 167.599L111.222 166.347L111.489 172.533L101.179 172.978L102.403 201.368L94.107 201.725L92.8782 173.24L82.4719 173.689ZM116.48 200.76L114.989 166.185L123.285 165.827L124.777 200.402L116.48 200.76ZM130.476 182.861C130.249 177.617 131.711 173.262 134.861 169.795C138.041 166.295 142.22 164.433 147.4 164.21C152.579 163.987 156.887 165.482 160.325 168.697C163.793 171.879 165.641 176.091 165.867 181.334C166.093 186.577 164.631 190.932 161.482 194.399C158.332 197.866 154.152 199.712 148.941 199.937C143.762 200.16 139.438 198.681 135.969 195.5C132.532 192.285 130.7 188.072 130.476 182.861ZM147.693 171.02C144.88 171.141 142.638 172.263 140.968 174.385C139.329 176.473 138.581 179.18 138.724 182.505C138.866 185.798 139.844 188.43 141.659 190.402C143.504 192.34 145.834 193.248 148.647 193.127C151.428 193.007 153.655 191.902 155.326 189.812C156.998 187.722 157.764 185.063 157.625 181.834C157.48 178.477 156.5 175.812 154.685 173.841C152.869 171.837 150.539 170.897 147.693 171.02ZM172.978 198.323L171.486 163.747L179.015 163.423L196.981 183.403C197.587 184.081 197.976 184.93 198.148 185.947L197.143 162.641L205.343 162.287L206.834 196.863L199.305 197.188L181.142 177.072C180.636 176.485 180.314 175.714 180.177 174.759L181.178 197.97L172.978 198.323Z" fill="white"/>
</g>
<defs>
<filter id="filter0_d_3143_125654" x="34.5188" y="0.479004" width="178.986" height="103.463" filterUnits="userSpaceOnUse" color-interpolation-filters="sRGB">
<feFlood flood-opacity="0" result="BackgroundImageFix"/>
<feColorMatrix in="SourceAlpha" type="matrix" values="0 0 0 0 0 0 0 0 0 0 0 0 0 0 0 0 0 0 127 0" result="hardAlpha"/>
<feOffset dx="18.7672" dy="18.7672"/>
<feGaussianBlur stdDeviation="3.12786"/>
<feComposite in2="hardAlpha" operator="out"/>
<feColorMatrix type="matrix" values="0 0 0 0 0 0 0 0 0 0 0 0 0 0 0 0 0 0 0.4 0"/>
<feBlend mode="normal" in2="BackgroundImageFix" result="effect1_dropShadow_3143_125654"/>
<feBlend mode="normal" in="SourceGraphic" in2="effect1_dropShadow_3143_125654" result="shape"/>
</filter>
<filter id="filter1_d_3143_125654" x="64.8892" y="66.8054" width="118.244" height="112.082" filterUnits="userSpaceOnUse" color-interpolation-filters="sRGB">
<feFlood flood-opacity="0" result="BackgroundImageFix"/>
<feColorMatrix in="SourceAlpha" type="matrix" values="0 0 0 0 0 0 0 0 0 0 0 0 0 0 0 0 0 0 127 0" result="hardAlpha"/>
<feOffset dx="18.7672" dy="18.7672"/>
<feGaussianBlur stdDeviation="3.12786"/>
<feComposite in2="hardAlpha" operator="out"/>
<feColorMatrix type="matrix" values="0 0 0 0 0 0 0 0 0 0 0 0 0 0 0 0 0 0 0.4 0"/>
<feBlend mode="normal" in2="BackgroundImageFix" result="effect1_dropShadow_3143_125654"/>
<feBlend mode="normal" in="SourceGraphic" in2="effect1_dropShadow_3143_125654" result="shape"/>
</filter>
<filter id="filter2_d_3143_125654" x="0.0507812" y="141.751" width="247.921" height="106.437" filterUnits="userSpaceOnUse" color-interpolation-filters="sRGB">
<feFlood flood-opacity="0" result="BackgroundImageFix"/>
<feColorMatrix in="SourceAlpha" type="matrix" values="0 0 0 0 0 0 0 0 0 0 0 0 0 0 0 0 0 0 127 0" result="hardAlpha"/>
<feOffset dx="18.7672" dy="18.7672"/>
<feGaussianBlur stdDeviation="3.12786"/>
<feComposite in2="hardAlpha" operator="out"/>
<feColorMatrix type="matrix" values="0 0 0 0 0 0 0 0 0 0 0 0 0 0 0 0 0 0 0.4 0"/>
<feBlend mode="normal" in2="BackgroundImageFix" result="effect1_dropShadow_3143_125654"/>
<feBlend mode="normal" in="SourceGraphic" in2="effect1_dropShadow_3143_125654" result="shape"/>
</filter>
</defs>
</svg>
