<svg width="1065" height="213" viewBox="0 0 1065 213" fill="none" xmlns="http://www.w3.org/2000/svg">
<g filter="url(#filter0_d_3143_121264)">
<rect x="1" y="16.0406" width="349" height="146" transform="rotate(-2.47 1 16.0406)" fill="#2395DD" shape-rendering="crispEdges"/>
<rect x="1" y="16.0406" width="349" height="146" transform="rotate(-2.47 1 16.0406)" stroke="black" shape-rendering="crispEdges"/>
<path d="M103.925 53.9502L104.598 69.5557C100.477 67.6048 96.7855 66.2593 93.5239 65.5192C90.2623 64.7791 86.69 64.4928 82.807 64.6603C75.1141 64.9921 68.916 67.645 64.2127 72.619C59.5093 77.593 57.3204 83.8532 57.6459 91.3995C57.9651 98.7993 60.6436 104.739 65.6814 109.22C70.7192 113.7 77.1211 115.773 84.8872 115.438C88.9901 115.261 92.7762 114.547 96.2455 113.296C99.7148 112.046 103.444 110.013 107.433 107.199L108.135 123.463C103.547 126.01 99.2587 127.847 95.2702 128.973C91.3549 130.096 86.9796 130.762 82.1441 130.97C69.689 131.508 59.3455 128.247 51.1137 121.189C42.8818 114.13 38.5115 104.703 38.0027 92.9074C37.4781 80.7454 41.0747 70.5342 48.7925 62.274C56.5104 54.0137 66.6335 49.6133 79.1618 49.0729C83.631 48.8801 87.6795 49.1459 91.3075 49.8702C94.9322 50.5213 99.1381 51.8813 103.925 53.9502ZM123.234 127.877L119.816 48.6405L138.828 47.8203L142.246 127.057L123.234 127.877ZM146.891 47.4725L167.552 46.5813L186.983 91.2153L188.22 94.355C188.551 95.2215 188.767 95.9829 188.869 96.6391C189.044 97.2922 189.158 98.2415 189.212 99.487C189.311 96.6934 189.813 93.8459 190.715 90.9443L204.367 44.9932L224.808 44.1115L195.587 124.756L183.938 125.258L146.891 47.4725ZM236.287 123L232.869 43.7638L251.881 42.9436L255.299 122.18L236.287 123ZM272.154 121.453L268.736 42.2166L287.748 41.3965L290.559 106.566L324.188 105.115L324.795 119.182L272.154 121.453Z" fill="white"/>
</g>
<g filter="url(#filter1_d_3143_121264)">
<rect x="367.363" y="1" width="185" height="151" transform="rotate(12 367.363 1)" fill="#EC4E24" shape-rendering="crispEdges"/>
<rect x="367.363" y="1" width="185" height="151" transform="rotate(12 367.363 1)" stroke="black" shape-rendering="crispEdges"/>
<path d="M377.997 122.874L394.486 45.2973L413.1 49.2538L396.611 126.831L377.997 122.874ZM413.113 130.338L429.602 52.7614L446.495 56.352L474.919 110.975C475.875 112.828 476.252 114.932 476.051 117.289L487.166 64.997L505.565 68.9078L489.076 146.485L472.183 142.894L443.397 87.8564C442.611 86.2648 442.339 84.3702 442.581 82.1725L431.512 134.249L413.113 130.338Z" fill="white"/>
</g>
<g filter="url(#filter2_d_3143_121264)">
<rect x="528.32" y="22.7637" width="505" height="146" transform="rotate(-2.47 528.32 22.7637)" fill="#FCB342" shape-rendering="crispEdges"/>
<rect x="528.32" y="22.7637" width="505" height="146" transform="rotate(-2.47 528.32 22.7637)" stroke="black" shape-rendering="crispEdges"/>
<path d="M560.999 138.463L589.781 57.8375L609.233 56.9984L645.84 134.803L625.18 135.694L618.057 118.605L587.065 119.942L581.55 137.576L560.999 138.463ZM599.392 81.5354L591.145 107.325L612.575 106.4L602.029 81.4216C601.463 80.1982 601.046 79.0418 600.778 77.9523C600.508 76.7895 600.34 75.4389 600.273 73.9003C600.409 77.0507 600.115 79.5957 599.392 81.5354ZM712.027 57.1886L712.7 72.7941C708.579 70.8432 704.888 69.4977 701.626 68.7576C698.364 68.0175 694.792 67.7312 690.909 67.8987C683.216 68.2305 677.018 70.8834 672.315 75.8574C667.611 80.8314 665.423 87.0915 665.748 94.6378C666.067 102.038 668.746 107.978 673.784 112.458C678.821 116.938 685.223 119.011 692.989 118.676C697.092 118.499 700.878 117.785 704.348 116.535C707.817 115.284 711.546 113.251 715.535 110.437L716.237 126.702C711.649 129.249 707.361 131.085 703.372 132.211C699.457 133.334 695.082 134 690.246 134.209C677.791 134.746 667.448 131.485 659.216 124.427C650.984 117.369 646.614 107.941 646.105 96.1458C645.58 83.9838 649.177 73.7726 656.895 65.5123C664.612 57.252 674.736 52.8517 687.264 52.3113C691.733 52.1185 695.782 52.3842 699.41 53.1086C703.034 53.7596 707.24 55.1196 712.027 57.1886ZM717.278 66.3208L716.676 52.3638L783.164 49.4957L783.775 63.6725L760.147 64.6918L762.954 129.751L743.941 130.571L741.125 65.2921L717.278 66.3208ZM795.214 128.36L791.796 49.1234L810.808 48.3032L814.226 127.54L795.214 128.36ZM827.286 87.3394C826.768 75.3239 830.118 65.3436 837.335 57.3985C844.623 49.3769 854.201 45.1102 866.07 44.5982C877.939 44.0862 887.813 47.5139 895.691 54.8812C903.639 62.1721 907.872 71.8253 908.391 83.8408C908.909 95.8563 905.559 105.837 898.342 113.782C891.124 121.727 881.544 125.957 869.602 126.472C857.733 126.984 847.824 123.595 839.876 116.304C831.998 108.936 827.801 99.2816 827.286 87.3394ZM866.743 60.2037C860.296 60.4818 855.159 63.0523 851.331 67.9151C847.574 72.7014 845.86 78.9044 846.189 86.524C846.514 94.0703 848.756 100.103 852.915 104.621C857.143 109.063 862.481 111.145 868.929 110.867C875.303 110.592 880.405 108.059 884.236 103.27C888.066 98.4803 889.822 92.3857 889.503 84.9859C889.171 77.293 886.926 71.1875 882.767 66.6692C878.605 62.0776 873.264 59.9224 866.743 60.2037ZM924.687 122.775L921.269 43.5384L938.523 42.7941L979.695 88.5823C981.083 90.1372 981.974 92.0806 982.368 94.4125L980.065 41.0021L998.857 40.1915L1002.28 119.428L985.021 120.172L943.396 74.0732C942.237 72.7285 941.5 70.962 941.185 68.7735L943.48 121.964L924.687 122.775Z" fill="white"/>
</g>
<defs>
<filter id="filter0_d_3143_121264" x="0.479004" y="0.479004" width="381.033" height="186.97" filterUnits="userSpaceOnUse" color-interpolation-filters="sRGB">
<feFlood flood-opacity="0" result="BackgroundImageFix"/>
<feColorMatrix in="SourceAlpha" type="matrix" values="0 0 0 0 0 0 0 0 0 0 0 0 0 0 0 0 0 0 127 0" result="hardAlpha"/>
<feOffset dx="18.7672" dy="18.7672"/>
<feGaussianBlur stdDeviation="3.12786"/>
<feComposite in2="hardAlpha" operator="out"/>
<feColorMatrix type="matrix" values="0 0 0 0 0 0 0 0 0 0 0 0 0 0 0 0 0 0 0.4 0"/>
<feBlend mode="normal" in2="BackgroundImageFix" result="effect1_dropShadow_3143_121264"/>
<feBlend mode="normal" in="SourceGraphic" in2="effect1_dropShadow_3143_121264" result="shape"/>
</filter>
<filter id="filter1_d_3143_121264" x="335.375" y="0.406982" width="238.561" height="212.373" filterUnits="userSpaceOnUse" color-interpolation-filters="sRGB">
<feFlood flood-opacity="0" result="BackgroundImageFix"/>
<feColorMatrix in="SourceAlpha" type="matrix" values="0 0 0 0 0 0 0 0 0 0 0 0 0 0 0 0 0 0 127 0" result="hardAlpha"/>
<feOffset dx="18.7672" dy="18.7672"/>
<feGaussianBlur stdDeviation="3.12786"/>
<feComposite in2="hardAlpha" operator="out"/>
<feColorMatrix type="matrix" values="0 0 0 0 0 0 0 0 0 0 0 0 0 0 0 0 0 0 0.4 0"/>
<feBlend mode="normal" in2="BackgroundImageFix" result="effect1_dropShadow_3143_121264"/>
<feBlend mode="normal" in="SourceGraphic" in2="effect1_dropShadow_3143_121264" result="shape"/>
</filter>
<filter id="filter2_d_3143_121264" x="527.799" y="0.479004" width="536.888" height="193.693" filterUnits="userSpaceOnUse" color-interpolation-filters="sRGB">
<feFlood flood-opacity="0" result="BackgroundImageFix"/>
<feColorMatrix in="SourceAlpha" type="matrix" values="0 0 0 0 0 0 0 0 0 0 0 0 0 0 0 0 0 0 127 0" result="hardAlpha"/>
<feOffset dx="18.7672" dy="18.7672"/>
<feGaussianBlur stdDeviation="3.12786"/>
<feComposite in2="hardAlpha" operator="out"/>
<feColorMatrix type="matrix" values="0 0 0 0 0 0 0 0 0 0 0 0 0 0 0 0 0 0 0.4 0"/>
<feBlend mode="normal" in2="BackgroundImageFix" result="effect1_dropShadow_3143_121264"/>
<feBlend mode="normal" in="SourceGraphic" in2="effect1_dropShadow_3143_121264" result="shape"/>
</filter>
</defs>
</svg>
