<svg width="527" height="497" viewBox="0 0 527 497" fill="none" xmlns="http://www.w3.org/2000/svg">
<g filter="url(#filter0_d_3076_2808)">
<path d="M139.884 44.5457L75.8319 4.26532L61.8435 47.5488L0 27.5283L17.443 71.5735L0 105.588L17.443 149.969L0 203.002L17.443 248.5L0 296.788L17.443 356.242L0 418.431L24.2957 463.976L75.8319 442.454L107.49 487L157.554 469.954L209.09 451.964L284.185 481.494L357.809 442.454L448.365 481.494L461.617 431.943L502.11 418.431L499.165 370.869L488.122 327.701L499.165 260.861L488.122 211.196L508 162.458L488.122 113.721L508 65.9116L502.11 30.5313L448.365 44.5457L439.53 0L370.325 40.0411L312.899 0L240.748 32.0329L176.016 4.26532L139.884 44.5457Z" fill="#696155"/>
</g>
<defs>
<filter id="filter0_d_3076_2808" x="0" y="0" width="527" height="497" filterUnits="userSpaceOnUse" color-interpolation-filters="sRGB">
<feFlood flood-opacity="0" result="BackgroundImageFix"/>
<feColorMatrix in="SourceAlpha" type="matrix" values="0 0 0 0 0 0 0 0 0 0 0 0 0 0 0 0 0 0 127 0" result="hardAlpha"/>
<feOffset dx="19" dy="10"/>
<feComposite in2="hardAlpha" operator="out"/>
<feColorMatrix type="matrix" values="0 0 0 0 0 0 0 0 0 0 0 0 0 0 0 0 0 0 0.25 0"/>
<feBlend mode="normal" in2="BackgroundImageFix" result="effect1_dropShadow_3076_2808"/>
<feBlend mode="normal" in="SourceGraphic" in2="effect1_dropShadow_3076_2808" result="shape"/>
</filter>
</defs>
</svg>
