<svg width="440" height="90" viewBox="0 0 440 90" fill="none" xmlns="http://www.w3.org/2000/svg">
<g filter="url(#filter0_d_3197_42181)">
<path d="M357.807 72L407.056 71.6706L418 65.2584L403.335 57.3849L411.871 49.5114L403.335 43.4821L418 35.7884L405.524 24.5902L418 16.2904L405.961 9.76909L411.871 5.90902L359.996 6.23838L309.433 5.7114L207.433 5.90902L87.7039 5L33.8584 5.64554L17.2231 9.33434L10 14.9598L26.4163 25.4334L17.2231 27.752L26.4163 32.4553L19.8498 39.0424L10 45.4419L26.4163 55.9237L17.2231 63.3021L25.7597 68.4429L19.8498 71.2491L75.2275 71.6706L166.283 72L274.85 71.6706L357.807 72Z" fill="#696155"/>
<path d="M419.183 63.0557L407.61 56.8428L413.566 51.3496L415.839 49.2529L413.313 47.4697L408.115 43.7979L419.161 38.002L422.348 36.3311L419.67 33.9277L409.595 24.8848L419.385 18.3721L422.844 16.0713L419.19 14.0918L410.84 9.56934L413.238 8.00195L420.353 3.35547L411.855 3.40918L359.979 3.73828L309.46 3.21191L309.444 3.21094H309.429L207.429 3.40918L87.7227 2.5H87.6738L33.8281 3.14551L33.5693 3.14844L33.3174 3.20508L16.6816 6.89355L16.1318 7.01563L15.6875 7.3623L8.46387 12.9873L5.66992 15.1631L8.65527 17.0674L20.1885 24.4258L16.6113 25.3281L10.1709 26.9521L16.085 29.9775L22.2256 33.1191L18.2656 37.0908L8.6377 43.3457L5.38281 45.46L8.6543 47.5488L22.1338 56.1563L15.6582 61.3525L12.8643 63.5947L15.9336 65.4434L20.4805 68.1826L18.7773 68.9902L19.8311 73.749L75.208 74.1709H75.2188L166.274 74.5H166.291L274.84 74.1709L357.797 74.5H357.823L407.072 74.1709L407.742 74.166L408.319 73.8281L419.264 67.415L423.107 65.1631L419.183 63.0557Z" stroke="#DADADA" stroke-width="5"/>
</g>
<defs>
<filter id="filter0_d_3197_42181" x="0.766357" y="0" width="439.068" height="90" filterUnits="userSpaceOnUse" color-interpolation-filters="sRGB">
<feFlood flood-opacity="0" result="BackgroundImageFix"/>
<feColorMatrix in="SourceAlpha" type="matrix" values="0 0 0 0 0 0 0 0 0 0 0 0 0 0 0 0 0 0 127 0" result="hardAlpha"/>
<feOffset dx="11" dy="13"/>
<feComposite in2="hardAlpha" operator="out"/>
<feColorMatrix type="matrix" values="0 0 0 0 0 0 0 0 0 0 0 0 0 0 0 0 0 0 0.25 0"/>
<feBlend mode="normal" in2="BackgroundImageFix" result="effect1_dropShadow_3197_42181"/>
<feBlend mode="normal" in="SourceGraphic" in2="effect1_dropShadow_3197_42181" result="shape"/>
</filter>
</defs>
</svg>
