<svg width="513" height="463" viewBox="0 0 513 463" fill="none" xmlns="http://www.w3.org/2000/svg">
<g filter="url(#filter0_d_3032_18232)">
<mask id="path-1-outside-1_3032_18232" maskUnits="userSpaceOnUse" x="0" y="0" width="493" height="443" fill="black">
<rect fill="white" width="493" height="443"/>
<path d="M59.3612 2L443.364 48.0484L426.173 191.668L42.1702 145.619L59.3612 2Z"/>
<path d="M164.086 40.7054L161.879 59.1459C157.422 56.0647 153.353 53.7765 149.672 52.2812C145.99 50.786 141.857 49.7634 137.273 49.2137C128.191 48.1246 120.415 50.0463 113.947 54.9787C107.478 59.9111 103.71 66.836 102.642 75.7532C101.596 84.4973 103.595 91.982 108.641 98.2074C113.686 104.433 120.793 108.095 129.962 109.195C134.806 109.775 139.381 109.666 143.688 108.865C147.996 108.064 152.758 106.396 157.974 103.86L155.674 123.08C149.807 125.186 144.427 126.517 139.535 127.072C134.729 127.637 129.472 127.578 123.763 126.893C109.059 125.13 97.5594 119.316 89.2645 109.452C80.9695 99.5874 77.6563 87.686 79.3247 73.7474C81.045 59.3759 87.222 48.0856 97.8558 39.8765C108.49 31.6674 121.202 28.4496 135.993 30.2233C141.269 30.856 145.964 31.9459 150.078 33.4931C154.202 34.9537 158.872 37.3578 164.086 40.7054Z"/>
<path d="M172.527 131.16L183.735 37.5291L206.18 40.2207L194.973 133.852L172.527 131.16Z"/>
<path d="M215.699 41.3622L240.091 44.2872L254.301 100.394L255.147 104.316C255.369 105.396 255.477 106.331 255.47 107.121C255.549 107.921 255.501 109.056 255.325 110.528C255.978 107.27 257.113 104.025 258.728 100.793L283.556 49.4993L307.688 52.3932L257.946 141.403L244.194 139.754L215.699 41.3622Z"/>
<path d="M305.996 147.165L317.204 53.5343L339.65 56.2259L328.442 149.857L305.996 147.165Z"/>
<path d="M348.341 152.243L359.548 58.6121L381.994 61.3037L372.776 138.312L412.478 143.073L410.488 159.695L348.341 152.243Z"/>
<path d="M2 281.57L477.562 241.413L491 400.843L15.4379 441L2 281.57Z"/>
<path d="M24.3398 405.013L49.5997 323.807L68.8569 322.181L108.332 397.921L87.8776 399.648L80.1171 382.975L49.4362 385.566L44.6849 403.295L24.3398 405.013ZM60.096 346.939L52.9685 372.875L74.1841 371.083L62.7072 346.718C62.0954 345.527 61.6349 344.396 61.3255 343.325C61.01 342.182 60.788 340.848 60.6595 339.324C60.9226 342.446 60.7348 344.984 60.096 346.939Z"/>
<path d="M170.81 318.178L172.114 333.641C167.947 331.873 164.231 330.688 160.966 330.086C157.701 329.484 154.147 329.346 150.303 329.671C142.687 330.314 136.648 333.2 132.186 338.329C127.724 343.458 125.808 349.762 126.439 357.239C127.057 364.572 129.955 370.359 135.134 374.601C140.313 378.843 146.746 380.639 154.434 379.99C158.496 379.647 162.222 378.784 165.612 377.401C169.001 376.018 172.617 373.848 176.459 370.892L177.817 387.009C173.371 389.724 169.193 391.722 165.283 393.002C161.446 394.277 157.134 395.116 152.347 395.52C140.016 396.562 129.625 393.747 121.174 387.076C112.722 380.405 108.004 371.225 107.019 359.537C106.003 347.486 109.154 337.203 116.472 328.689C123.789 320.174 133.65 315.394 146.053 314.346C150.477 313.973 154.503 314.071 158.131 314.643C161.752 315.141 165.978 316.32 170.81 318.178Z"/>
<path d="M176.389 327.029L175.224 313.199L241.046 307.641L242.23 321.689L218.839 323.664L224.273 388.131L205.451 389.72L199.999 325.035L176.389 327.029Z"/>
<path d="M256.21 385.434L249.592 306.919L268.414 305.33L275.032 383.845L256.21 385.434Z"/>
<path d="M286.346 343.407C285.343 331.501 288.258 321.458 295.093 313.277C301.993 305.017 311.319 300.391 323.069 299.399C334.819 298.407 344.751 301.407 352.864 308.399C361.044 315.312 365.636 324.721 366.639 336.627C367.643 348.533 364.727 358.577 357.893 366.758C351.058 374.939 341.73 379.529 329.907 380.527C318.157 381.519 308.192 378.559 300.012 371.645C291.899 364.654 287.344 355.241 286.346 343.407ZM324.372 314.862C317.99 315.401 312.999 318.162 309.402 323.145C305.871 328.05 304.423 334.277 305.06 341.827C305.69 349.305 308.159 355.201 312.467 359.517C316.842 363.754 322.221 365.603 328.604 365.064C334.914 364.531 339.871 361.809 343.475 356.899C347.079 351.988 348.571 345.867 347.953 338.534C347.311 330.911 344.836 324.942 340.527 320.627C336.213 316.239 330.828 314.317 324.372 314.862Z"/>
<path d="M384.387 374.611L377.769 296.096L394.851 294.654L437.548 338.427C438.988 339.913 439.951 341.806 440.437 344.105L435.976 291.181L454.581 289.61L461.198 368.125L444.117 369.567L400.957 325.504C399.753 324.217 398.95 322.493 398.549 320.334L402.992 373.04L384.387 374.611Z"/>
<path d="M121.379 164.389L305.373 166.025L304.331 283.427L120.338 281.791L121.379 164.389Z"/>
<path d="M156.228 264.759L156.927 185.969L175.815 186.137L175.116 264.927L156.228 264.759Z"/>
<path d="M191.861 265.076L192.56 186.286L209.701 186.438L248.15 233.992C249.446 235.607 250.23 237.581 250.5 239.915L250.971 186.805L269.641 186.971L268.942 265.761L251.801 265.609L212.918 217.723C211.838 216.329 211.199 214.538 211 212.351L210.531 265.242L191.861 265.076Z"/>
</mask>
<path d="M59.3612 2L443.364 48.0484L426.173 191.668L42.1702 145.619L59.3612 2Z" fill="#0675BC"/>
<path d="M164.086 40.7054L161.879 59.1459C157.422 56.0647 153.353 53.7765 149.672 52.2812C145.99 50.786 141.857 49.7634 137.273 49.2137C128.191 48.1246 120.415 50.0463 113.947 54.9787C107.478 59.9111 103.71 66.836 102.642 75.7532C101.596 84.4973 103.595 91.982 108.641 98.2074C113.686 104.433 120.793 108.095 129.962 109.195C134.806 109.775 139.381 109.666 143.688 108.865C147.996 108.064 152.758 106.396 157.974 103.86L155.674 123.08C149.807 125.186 144.427 126.517 139.535 127.072C134.729 127.637 129.472 127.578 123.763 126.893C109.059 125.13 97.5594 119.316 89.2645 109.452C80.9695 99.5874 77.6563 87.686 79.3247 73.7474C81.045 59.3759 87.222 48.0856 97.8558 39.8765C108.49 31.6674 121.202 28.4496 135.993 30.2233C141.269 30.856 145.964 31.9459 150.078 33.4931C154.202 34.9537 158.872 37.3578 164.086 40.7054Z" fill="url(#paint0_linear_3032_18232)"/>
<path d="M172.527 131.16L183.735 37.5291L206.18 40.2207L194.973 133.852L172.527 131.16Z" fill="url(#paint1_linear_3032_18232)"/>
<path d="M215.699 41.3622L240.091 44.2872L254.301 100.394L255.147 104.316C255.369 105.396 255.477 106.331 255.47 107.121C255.549 107.921 255.501 109.056 255.325 110.528C255.978 107.27 257.113 104.025 258.728 100.793L283.556 49.4993L307.688 52.3932L257.946 141.403L244.194 139.754L215.699 41.3622Z" fill="url(#paint2_linear_3032_18232)"/>
<path d="M305.996 147.165L317.204 53.5343L339.65 56.2259L328.442 149.857L305.996 147.165Z" fill="url(#paint3_linear_3032_18232)"/>
<path d="M348.341 152.243L359.548 58.6121L381.994 61.3037L372.776 138.312L412.478 143.073L410.488 159.695L348.341 152.243Z" fill="url(#paint4_linear_3032_18232)"/>
<path d="M2 281.57L477.562 241.413L491 400.843L15.4379 441L2 281.57Z" fill="#FBB241"/>
<path d="M24.3398 405.013L49.5997 323.807L68.8569 322.181L108.332 397.921L87.8776 399.648L80.1171 382.975L49.4362 385.566L44.6849 403.295L24.3398 405.013ZM60.096 346.939L52.9685 372.875L74.1841 371.083L62.7072 346.718C62.0954 345.527 61.6349 344.396 61.3255 343.325C61.01 342.182 60.788 340.848 60.6595 339.324C60.9226 342.446 60.7348 344.984 60.096 346.939Z" fill="url(#paint5_linear_3032_18232)"/>
<path d="M170.81 318.178L172.114 333.641C167.947 331.873 164.231 330.688 160.966 330.086C157.701 329.484 154.147 329.346 150.303 329.671C142.687 330.314 136.648 333.2 132.186 338.329C127.724 343.458 125.808 349.762 126.439 357.239C127.057 364.572 129.955 370.359 135.134 374.601C140.313 378.843 146.746 380.639 154.434 379.99C158.496 379.647 162.222 378.784 165.612 377.401C169.001 376.018 172.617 373.848 176.459 370.892L177.817 387.009C173.371 389.724 169.193 391.722 165.283 393.002C161.446 394.277 157.134 395.116 152.347 395.52C140.016 396.562 129.625 393.747 121.174 387.076C112.722 380.405 108.004 371.225 107.019 359.537C106.003 347.486 109.154 337.203 116.472 328.689C123.789 320.174 133.65 315.394 146.053 314.346C150.477 313.973 154.503 314.071 158.131 314.643C161.752 315.141 165.978 316.32 170.81 318.178Z" fill="url(#paint6_linear_3032_18232)"/>
<path d="M176.389 327.029L175.224 313.199L241.046 307.641L242.23 321.689L218.839 323.664L224.273 388.131L205.451 389.72L199.999 325.035L176.389 327.029Z" fill="url(#paint7_linear_3032_18232)"/>
<path d="M256.21 385.434L249.592 306.919L268.414 305.33L275.032 383.845L256.21 385.434Z" fill="url(#paint8_linear_3032_18232)"/>
<path d="M286.346 343.407C285.343 331.501 288.258 321.458 295.093 313.277C301.993 305.017 311.319 300.391 323.069 299.399C334.819 298.407 344.751 301.407 352.864 308.399C361.044 315.312 365.636 324.721 366.639 336.627C367.643 348.533 364.727 358.577 357.893 366.758C351.058 374.939 341.73 379.529 329.907 380.527C318.157 381.519 308.192 378.559 300.012 371.645C291.899 364.654 287.344 355.241 286.346 343.407ZM324.372 314.862C317.99 315.401 312.999 318.162 309.402 323.145C305.871 328.05 304.423 334.277 305.06 341.827C305.69 349.305 308.159 355.201 312.467 359.517C316.842 363.754 322.221 365.603 328.604 365.064C334.914 364.531 339.871 361.809 343.475 356.899C347.079 351.988 348.571 345.867 347.953 338.534C347.311 330.911 344.836 324.942 340.527 320.627C336.213 316.239 330.828 314.317 324.372 314.862Z" fill="url(#paint9_linear_3032_18232)"/>
<path d="M384.387 374.611L377.769 296.096L394.851 294.654L437.548 338.427C438.988 339.913 439.951 341.806 440.437 344.105L435.976 291.181L454.581 289.61L461.198 368.125L444.117 369.567L400.957 325.504C399.753 324.217 398.95 322.493 398.549 320.334L402.992 373.04L384.387 374.611Z" fill="url(#paint10_linear_3032_18232)"/>
<path d="M121.379 164.389L305.373 166.025L304.331 283.427L120.338 281.791L121.379 164.389Z" fill="#EC4E22"/>
<path d="M156.228 264.759L156.927 185.969L175.815 186.137L175.116 264.927L156.228 264.759Z" fill="url(#paint11_linear_3032_18232)"/>
<path d="M191.861 265.076L192.56 186.286L209.701 186.438L248.15 233.992C249.446 235.607 250.23 237.581 250.5 239.915L250.971 186.805L269.641 186.971L268.942 265.761L251.801 265.609L212.918 217.723C211.838 216.329 211.199 214.538 211 212.351L210.531 265.242L191.861 265.076Z" fill="url(#paint12_linear_3032_18232)"/>
<path d="M59.3612 2L443.364 48.0484L426.173 191.668L42.1702 145.619L59.3612 2Z" stroke="black" stroke-width="2" mask="url(#path-1-outside-1_3032_18232)"/>
<path d="M164.086 40.7054L161.879 59.1459C157.422 56.0647 153.353 53.7765 149.672 52.2812C145.99 50.786 141.857 49.7634 137.273 49.2137C128.191 48.1246 120.415 50.0463 113.947 54.9787C107.478 59.9111 103.71 66.836 102.642 75.7532C101.596 84.4973 103.595 91.982 108.641 98.2074C113.686 104.433 120.793 108.095 129.962 109.195C134.806 109.775 139.381 109.666 143.688 108.865C147.996 108.064 152.758 106.396 157.974 103.86L155.674 123.08C149.807 125.186 144.427 126.517 139.535 127.072C134.729 127.637 129.472 127.578 123.763 126.893C109.059 125.13 97.5594 119.316 89.2645 109.452C80.9695 99.5874 77.6563 87.686 79.3247 73.7474C81.045 59.3759 87.222 48.0856 97.8558 39.8765C108.49 31.6674 121.202 28.4496 135.993 30.2233C141.269 30.856 145.964 31.9459 150.078 33.4931C154.202 34.9537 158.872 37.3578 164.086 40.7054Z" stroke="black" stroke-width="2" mask="url(#path-1-outside-1_3032_18232)"/>
<path d="M172.527 131.16L183.735 37.5291L206.18 40.2207L194.973 133.852L172.527 131.16Z" stroke="black" stroke-width="2" mask="url(#path-1-outside-1_3032_18232)"/>
<path d="M215.699 41.3622L240.091 44.2872L254.301 100.394L255.147 104.316C255.369 105.396 255.477 106.331 255.47 107.121C255.549 107.921 255.501 109.056 255.325 110.528C255.978 107.27 257.113 104.025 258.728 100.793L283.556 49.4993L307.688 52.3932L257.946 141.403L244.194 139.754L215.699 41.3622Z" stroke="black" stroke-width="2" mask="url(#path-1-outside-1_3032_18232)"/>
<path d="M305.996 147.165L317.204 53.5343L339.65 56.2259L328.442 149.857L305.996 147.165Z" stroke="black" stroke-width="2" mask="url(#path-1-outside-1_3032_18232)"/>
<path d="M348.341 152.243L359.548 58.6121L381.994 61.3037L372.776 138.312L412.478 143.073L410.488 159.695L348.341 152.243Z" stroke="black" stroke-width="2" mask="url(#path-1-outside-1_3032_18232)"/>
<path d="M2 281.57L477.562 241.413L491 400.843L15.4379 441L2 281.57Z" stroke="black" stroke-width="2" mask="url(#path-1-outside-1_3032_18232)"/>
<path d="M24.3398 405.013L49.5997 323.807L68.8569 322.181L108.332 397.921L87.8776 399.648L80.1171 382.975L49.4362 385.566L44.6849 403.295L24.3398 405.013ZM60.096 346.939L52.9685 372.875L74.1841 371.083L62.7072 346.718C62.0954 345.527 61.6349 344.396 61.3255 343.325C61.01 342.182 60.788 340.848 60.6595 339.324C60.9226 342.446 60.7348 344.984 60.096 346.939Z" stroke="black" stroke-width="2" mask="url(#path-1-outside-1_3032_18232)"/>
<path d="M170.81 318.178L172.114 333.641C167.947 331.873 164.231 330.688 160.966 330.086C157.701 329.484 154.147 329.346 150.303 329.671C142.687 330.314 136.648 333.2 132.186 338.329C127.724 343.458 125.808 349.762 126.439 357.239C127.057 364.572 129.955 370.359 135.134 374.601C140.313 378.843 146.746 380.639 154.434 379.99C158.496 379.647 162.222 378.784 165.612 377.401C169.001 376.018 172.617 373.848 176.459 370.892L177.817 387.009C173.371 389.724 169.193 391.722 165.283 393.002C161.446 394.277 157.134 395.116 152.347 395.52C140.016 396.562 129.625 393.747 121.174 387.076C112.722 380.405 108.004 371.225 107.019 359.537C106.003 347.486 109.154 337.203 116.472 328.689C123.789 320.174 133.65 315.394 146.053 314.346C150.477 313.973 154.503 314.071 158.131 314.643C161.752 315.141 165.978 316.32 170.81 318.178Z" stroke="black" stroke-width="2" mask="url(#path-1-outside-1_3032_18232)"/>
<path d="M176.389 327.029L175.224 313.199L241.046 307.641L242.23 321.689L218.839 323.664L224.273 388.131L205.451 389.72L199.999 325.035L176.389 327.029Z" stroke="black" stroke-width="2" mask="url(#path-1-outside-1_3032_18232)"/>
<path d="M256.21 385.434L249.592 306.919L268.414 305.33L275.032 383.845L256.21 385.434Z" stroke="black" stroke-width="2" mask="url(#path-1-outside-1_3032_18232)"/>
<path d="M286.346 343.407C285.343 331.501 288.258 321.458 295.093 313.277C301.993 305.017 311.319 300.391 323.069 299.399C334.819 298.407 344.751 301.407 352.864 308.399C361.044 315.312 365.636 324.721 366.639 336.627C367.643 348.533 364.727 358.577 357.893 366.758C351.058 374.939 341.73 379.529 329.907 380.527C318.157 381.519 308.192 378.559 300.012 371.645C291.899 364.654 287.344 355.241 286.346 343.407ZM324.372 314.862C317.99 315.401 312.999 318.162 309.402 323.145C305.871 328.05 304.423 334.277 305.06 341.827C305.69 349.305 308.159 355.201 312.467 359.517C316.842 363.754 322.221 365.603 328.604 365.064C334.914 364.531 339.871 361.809 343.475 356.899C347.079 351.988 348.571 345.867 347.953 338.534C347.311 330.911 344.836 324.942 340.527 320.627C336.213 316.239 330.828 314.317 324.372 314.862Z" stroke="black" stroke-width="2" mask="url(#path-1-outside-1_3032_18232)"/>
<path d="M384.387 374.611L377.769 296.096L394.851 294.654L437.548 338.427C438.988 339.913 439.951 341.806 440.437 344.105L435.976 291.181L454.581 289.61L461.198 368.125L444.117 369.567L400.957 325.504C399.753 324.217 398.95 322.493 398.549 320.334L402.992 373.04L384.387 374.611Z" stroke="black" stroke-width="2" mask="url(#path-1-outside-1_3032_18232)"/>
<path d="M121.379 164.389L305.373 166.025L304.331 283.427L120.338 281.791L121.379 164.389Z" stroke="black" stroke-width="2" mask="url(#path-1-outside-1_3032_18232)"/>
<path d="M156.228 264.759L156.927 185.969L175.815 186.137L175.116 264.927L156.228 264.759Z" stroke="black" stroke-width="2" mask="url(#path-1-outside-1_3032_18232)"/>
<path d="M191.861 265.076L192.56 186.286L209.701 186.438L248.15 233.992C249.446 235.607 250.23 237.581 250.5 239.915L250.971 186.805L269.641 186.971L268.942 265.761L251.801 265.609L212.918 217.723C211.838 216.329 211.199 214.538 211 212.351L210.531 265.242L191.861 265.076Z" stroke="black" stroke-width="2" mask="url(#path-1-outside-1_3032_18232)"/>
</g>
<defs>
<filter id="filter0_d_3032_18232" x="0.919434" y="0.887939" width="511.161" height="461.193" filterUnits="userSpaceOnUse" color-interpolation-filters="sRGB">
<feFlood flood-opacity="0" result="BackgroundImageFix"/>
<feColorMatrix in="SourceAlpha" type="matrix" values="0 0 0 0 0 0 0 0 0 0 0 0 0 0 0 0 0 0 127 0" result="hardAlpha"/>
<feOffset dx="15" dy="15"/>
<feGaussianBlur stdDeviation="2.5"/>
<feComposite in2="hardAlpha" operator="out"/>
<feColorMatrix type="matrix" values="0 0 0 0 0 0 0 0 0 0 0 0 0 0 0 0 0 0 0.2 0"/>
<feBlend mode="normal" in2="BackgroundImageFix" result="effect1_dropShadow_3032_18232"/>
<feBlend mode="normal" in="SourceGraphic" in2="effect1_dropShadow_3032_18232" result="shape"/>
</filter>
<linearGradient id="paint0_linear_3032_18232" x1="-100.673" y1="414.232" x2="462.904" y2="36.6804" gradientUnits="userSpaceOnUse">
<stop offset="0.61043" stop-color="#BBBAB8"/>
</linearGradient>
<linearGradient id="paint1_linear_3032_18232" x1="-100.673" y1="414.232" x2="462.904" y2="36.6804" gradientUnits="userSpaceOnUse">
<stop offset="0.61043" stop-color="#BBBAB8"/>
</linearGradient>
<linearGradient id="paint2_linear_3032_18232" x1="-100.673" y1="414.232" x2="462.904" y2="36.6804" gradientUnits="userSpaceOnUse">
<stop offset="0.61043" stop-color="#BBBAB8"/>
</linearGradient>
<linearGradient id="paint3_linear_3032_18232" x1="-100.673" y1="414.232" x2="462.904" y2="36.6804" gradientUnits="userSpaceOnUse">
<stop offset="0.61043" stop-color="#BBBAB8"/>
</linearGradient>
<linearGradient id="paint4_linear_3032_18232" x1="-100.673" y1="414.232" x2="462.904" y2="36.6804" gradientUnits="userSpaceOnUse">
<stop offset="0.61043" stop-color="#BBBAB8"/>
</linearGradient>
<linearGradient id="paint5_linear_3032_18232" x1="358.057" y1="-540.504" x2="381.664" y2="689.773" gradientUnits="userSpaceOnUse">
<stop offset="0.61043" stop-color="#3E3E3E"/>
</linearGradient>
<linearGradient id="paint6_linear_3032_18232" x1="358.057" y1="-540.504" x2="381.664" y2="689.773" gradientUnits="userSpaceOnUse">
<stop offset="0.61043" stop-color="#3E3E3E"/>
</linearGradient>
<linearGradient id="paint7_linear_3032_18232" x1="358.057" y1="-540.504" x2="381.664" y2="689.773" gradientUnits="userSpaceOnUse">
<stop offset="0.61043" stop-color="#3E3E3E"/>
</linearGradient>
<linearGradient id="paint8_linear_3032_18232" x1="358.057" y1="-540.504" x2="381.664" y2="689.773" gradientUnits="userSpaceOnUse">
<stop offset="0.61043" stop-color="#3E3E3E"/>
</linearGradient>
<linearGradient id="paint9_linear_3032_18232" x1="358.057" y1="-540.504" x2="381.664" y2="689.773" gradientUnits="userSpaceOnUse">
<stop offset="0.61043" stop-color="#3E3E3E"/>
</linearGradient>
<linearGradient id="paint10_linear_3032_18232" x1="358.057" y1="-540.504" x2="381.664" y2="689.773" gradientUnits="userSpaceOnUse">
<stop offset="0.61043" stop-color="#3E3E3E"/>
</linearGradient>
<linearGradient id="paint11_linear_3032_18232" x1="43.5389" y1="67.2683" x2="349.433" y2="130.017" gradientUnits="userSpaceOnUse">
<stop offset="0.61131" stop-color="#6E6E6E"/>
</linearGradient>
<linearGradient id="paint12_linear_3032_18232" x1="43.5389" y1="67.2683" x2="349.433" y2="130.017" gradientUnits="userSpaceOnUse">
<stop offset="0.61131" stop-color="#6E6E6E"/>
</linearGradient>
</defs>
</svg>
