<svg width="1372" height="400" viewBox="0 0 1372 400" fill="none" xmlns="http://www.w3.org/2000/svg">
<g filter="url(#filter0_d_3013_31181)">
<rect x="241.887" y="22.6777" width="503" height="146" transform="rotate(-2.47 241.887 22.6777)" fill="#2395DD" shape-rendering="crispEdges"/>
<rect x="241.887" y="22.6777" width="503" height="146" transform="rotate(-2.47 241.887 22.6777)" stroke="black" shape-rendering="crispEdges"/>
<path d="M282.556 138.032L279.138 58.7956L326.723 56.7429L327.321 70.59L298.747 71.8226L299.539 90.1755L326.464 89.0141L327.047 102.532L300.122 103.693L301.568 137.212L282.556 138.032ZM412.045 53.0624L414.055 99.6591C414.378 107.132 413.525 112.894 411.498 116.945C409.082 122.188 404.899 126.479 398.951 129.818C393.073 133.081 386.251 134.88 378.485 135.215C370.865 135.544 363.988 134.372 357.854 131.701C351.79 128.953 347.179 125.005 344.021 119.856C342.843 118.072 341.897 115.727 341.185 112.822C340.469 109.843 340.032 106.522 339.874 102.859L337.864 56.2623L356.877 55.4422L358.858 101.379C359.111 107.241 360.887 111.825 364.186 115.133C367.555 118.364 372.097 119.856 377.811 119.61C383.453 119.366 387.813 117.49 390.891 113.981C394.039 110.395 395.487 105.672 395.234 99.8104L393.253 53.8731L412.045 53.0624ZM421.474 66.6387L420.872 52.6817L487.36 49.8136L487.972 63.9904L464.344 65.0097L467.15 130.069L448.138 130.889L445.322 65.61L421.474 66.6387ZM570.174 46.2414L572.184 92.838C572.506 100.311 571.653 106.073 569.626 110.124C567.21 115.367 563.028 119.658 557.079 122.997C551.201 126.26 544.379 128.059 536.613 128.394C528.993 128.723 522.116 127.551 515.982 124.88C509.918 122.132 505.307 118.184 502.149 113.035C500.971 111.251 500.026 108.906 499.313 106.001C498.597 103.022 498.161 99.7012 498.003 96.0379L495.993 49.4413L515.005 48.6211L516.986 94.5584C517.239 100.42 519.015 105.004 522.314 108.312C525.683 111.543 530.225 113.035 535.94 112.789C541.581 112.545 545.941 110.669 549.019 107.16C552.168 103.574 553.615 98.8505 553.363 92.9893L551.381 47.052L570.174 46.2414ZM590.441 124.751L587.023 45.5145L619.663 44.1066C626.916 43.7937 632.904 45.6273 637.627 49.6075C642.422 53.5845 644.963 58.87 645.247 65.4638C645.645 74.6952 641.774 81.1014 633.634 84.6821C635.131 85.3516 636.184 85.9301 636.792 86.4177C637.474 86.9021 638.434 87.8883 639.672 89.3763C640.443 90.2239 641.064 91.0045 641.535 91.7182C641.767 92.0018 642.317 92.8222 643.183 94.1795L652.246 110.304L658.688 121.807L638.796 122.665L634.723 115.023L630.191 106.961C627.008 101.226 624.488 97.2613 622.632 95.066C619.995 91.8032 616.626 90.2603 612.523 90.4373L608.017 90.6317L609.453 123.931L590.441 124.751ZM606.585 57.4426L607.496 78.5429L615.078 78.2158C618.742 78.0578 621.525 77.057 623.427 75.2133C625.399 73.2931 626.314 70.6846 626.172 67.3877C626.02 63.8709 624.879 61.241 622.749 59.4979C620.619 57.7547 617.575 56.9685 613.619 57.1392L606.585 57.4426ZM665.91 121.495L662.492 42.2591L712.386 40.1068L712.983 53.954L682.102 55.2861L682.889 73.5291L711.902 72.2776L712.48 85.6851L683.467 86.9366L684.33 106.938L715.98 105.573L716.573 119.31L665.91 121.495Z" fill="white"/>
</g>
<g filter="url(#filter1_d_3013_31181)">
<rect x="764.106" y="1" width="349" height="151" transform="rotate(12 764.106 1)" fill="#EC4E24" shape-rendering="crispEdges"/>
<rect x="764.106" y="1" width="349" height="151" transform="rotate(12 764.106 1)" stroke="black" shape-rendering="crispEdges"/>
<path d="M854.293 63.425L851.046 78.7037C847.543 75.7849 844.305 73.5597 841.331 72.0281C838.358 70.4965 834.971 69.3266 831.169 68.5185C823.637 66.9176 816.973 67.9376 811.176 71.5786C805.379 75.2196 801.695 80.7342 800.125 88.1225C798.585 95.3673 799.694 101.788 803.453 107.385C807.211 112.982 812.892 116.589 820.495 118.205C824.512 119.059 828.357 119.314 832.028 118.97C835.7 118.626 839.819 117.589 844.385 115.861L841 131.785C835.921 133.105 831.31 133.811 827.167 133.905C823.095 134.014 818.692 133.566 813.958 132.56C801.764 129.968 792.563 124.226 786.356 115.334C780.149 106.443 778.273 96.2229 780.728 84.6743C783.259 72.7669 789.293 63.7784 798.83 57.7086C808.367 51.6388 819.268 49.9076 831.534 52.5148C835.91 53.4448 839.764 54.7138 843.096 56.3217C846.443 57.8578 850.175 60.2256 854.293 63.425ZM854.517 139.831L871.007 62.2544L889.621 66.2109L873.131 143.788L854.517 139.831ZM897.515 67.8888L917.743 72.1885L925.405 120.262L925.818 123.611C925.922 124.533 925.941 125.324 925.876 125.985C925.882 126.661 925.756 127.609 925.496 128.828C926.291 126.148 927.488 123.516 929.087 120.932L953.788 79.85L973.801 84.1039L925.355 154.888L913.95 152.464L897.515 67.8888ZM965.203 163.358L981.692 85.7813L1000.31 89.7378L983.817 167.315L965.203 163.358ZM1000.32 170.822L1016.81 93.2454L1035.42 97.2019L1021.86 161.007L1054.78 168.005L1051.86 181.777L1000.32 170.822Z" fill="white"/>
</g>
<g filter="url(#filter2_d_3013_31181)">
<rect x="1" y="228.847" width="637" height="146" transform="rotate(-6 1 228.847)" fill="#FCB342" shape-rendering="crispEdges"/>
<rect x="1" y="228.847" width="637" height="146" transform="rotate(-6 1 228.847)" stroke="black" shape-rendering="crispEdges"/>
<path d="M49.1227 341.433L40.8325 262.558L90.499 257.338L91.9477 271.122L61.2071 274.353L63.1157 292.513L91.9967 289.477L93.3994 302.824L64.5185 305.859L66.6112 325.77L98.1176 322.458L99.5549 336.133L49.1227 341.433ZM113.458 334.672L105.168 255.796L122.343 253.991L166.256 297.157C167.737 298.624 168.746 300.508 169.283 302.812L163.695 249.644L182.402 247.678L190.692 326.554L173.517 328.359L129.132 284.91C127.893 283.64 127.048 281.922 126.6 279.757L132.165 332.705L113.458 334.672ZM266.475 242.934L268.073 258.141L263.127 256.338C257.478 254.498 251.626 253.897 245.573 254.533C237.258 255.407 230.802 258.519 226.202 263.869C221.603 269.219 219.721 275.869 220.557 283.818C221.362 291.476 224.452 297.382 229.83 301.536C235.207 305.69 241.87 307.349 249.819 306.514C250.913 306.399 251.894 306.259 252.762 306.094C253.629 305.929 255.349 305.453 257.921 304.667L256.564 291.758L246.827 292.781L245.402 279.216L273.189 276.295L277.259 315.022L272.549 316.512C268.622 317.736 264.461 318.837 260.066 319.815C255.744 320.786 252.014 321.436 248.878 321.765C235.97 323.122 225.084 320.58 216.222 314.137C207.425 307.614 202.402 298.409 201.153 286.521C199.888 274.487 202.89 264.107 210.157 255.379C217.425 246.652 227.294 241.633 239.765 240.322C244.214 239.854 248.45 239.815 252.473 240.203C256.495 240.591 261.163 241.502 266.475 242.934ZM294.156 315.679L285.866 236.804L304.791 234.815L313.082 313.69L294.156 315.679ZM329.859 311.927L321.569 233.051L338.745 231.246L382.657 274.412C384.139 275.879 385.148 277.764 385.685 280.067L380.097 226.9L398.804 224.934L407.094 303.809L389.919 305.614L345.534 262.166C344.294 260.895 343.45 259.177 343.001 257.012L348.566 309.961L329.859 311.927ZM423.681 302.066L415.39 223.19L465.057 217.97L466.506 231.754L435.765 234.985L437.674 253.145L466.555 250.11L467.957 263.456L439.076 266.492L441.169 286.402L472.675 283.09L474.113 296.765L423.681 302.066ZM488.016 295.304L479.725 216.428L529.392 211.208L530.841 224.992L500.1 228.223L502.009 246.383L530.89 243.348L532.292 256.694L503.411 259.73L505.504 279.64L537.011 276.329L538.448 290.003L488.016 295.304ZM552.351 288.542L544.061 209.666L576.552 206.252C583.772 205.493 589.861 206.954 594.82 210.636C599.852 214.31 602.712 219.429 603.402 225.993C604.368 235.182 600.899 241.815 592.995 245.89C594.53 246.466 595.616 246.978 596.254 247.428C596.964 247.869 597.983 248.794 599.31 250.203C600.132 251.002 600.8 251.743 601.314 252.426C601.563 252.695 602.162 253.48 603.11 254.781L613.149 270.317L620.286 281.402L600.486 283.483L595.95 276.107L590.93 268.339C587.4 262.811 584.64 259.008 582.652 256.931C579.82 253.837 576.362 252.505 572.278 252.934L567.793 253.405L571.276 286.553L552.351 288.542ZM564.32 220.367L566.528 241.372L574.076 240.578C577.723 240.195 580.439 239.025 582.224 237.067C584.074 235.03 584.827 232.37 584.482 229.088C584.114 225.587 582.813 223.032 580.58 221.424C578.346 219.815 575.26 219.218 571.322 219.632L564.32 220.367Z" fill="white"/>
</g>
<g filter="url(#filter3_d_3013_31181)">
<rect x="589.771" y="194.627" width="751" height="146" transform="rotate(-2.47 589.771 194.627)" fill="#333333" shape-rendering="crispEdges"/>
<rect x="589.771" y="194.627" width="751" height="146" transform="rotate(-2.47 589.771 194.627)" stroke="black" shape-rendering="crispEdges"/>
<path d="M692.989 232.524L693.662 248.129C689.541 246.178 685.85 244.833 682.588 244.093C679.327 243.352 675.754 243.066 671.871 243.234C664.178 243.565 657.98 246.218 653.277 251.192C648.574 256.166 646.385 262.426 646.71 269.973C647.029 277.373 649.708 283.313 654.746 287.793C659.783 292.273 666.185 294.346 673.951 294.011C678.054 293.834 681.84 293.12 685.31 291.87C688.779 290.619 692.508 288.586 696.497 285.772L697.199 302.037C692.611 304.583 688.323 306.42 684.334 307.546C680.419 308.669 676.044 309.335 671.208 309.544C658.753 310.081 648.41 306.82 640.178 299.762C631.946 292.704 627.576 283.276 627.067 271.481C626.542 259.319 630.139 249.108 637.857 240.847C645.575 232.587 655.698 228.187 668.226 227.646C672.695 227.453 676.744 227.719 680.372 228.444C683.996 229.095 688.202 230.455 692.989 232.524ZM712.298 306.45L708.88 227.214L727.892 226.394L729.281 258.594L764.558 257.072L763.169 224.872L782.182 224.052L785.6 303.288L766.697 304.103L765.261 270.804L729.874 272.331L731.31 305.63L712.298 306.45ZM794.34 302.911L823.122 222.286L842.574 221.447L879.181 299.251L858.52 300.143L851.397 283.054L820.406 284.391L814.891 302.025L794.34 302.911ZM832.732 245.984L824.486 271.773L845.916 270.849L835.37 245.87C834.803 244.646 834.386 243.49 834.119 242.401C833.849 241.238 833.68 239.887 833.614 238.349C833.75 241.499 833.456 244.044 832.732 245.984ZM887.92 298.874L884.502 219.638L903.514 218.818L906.325 283.987L939.954 282.537L940.561 296.604L887.92 298.874ZM951.476 296.133L948.058 216.897L967.07 216.076L969.881 281.246L1003.51 279.795L1004.12 293.862L951.476 296.133ZM1015.03 293.391L1011.61 214.155L1061.51 212.003L1062.1 225.85L1031.22 227.182L1032.01 245.425L1061.02 244.173L1061.6 257.581L1032.59 258.832L1033.45 278.834L1065.1 277.469L1065.69 291.206L1015.03 293.391ZM1079.66 290.603L1076.24 211.367L1093.5 210.623L1134.67 256.411C1136.06 257.966 1136.95 259.909 1137.34 262.241L1135.04 208.831L1153.83 208.02L1157.25 287.257L1140 288.001L1098.37 241.902C1097.21 240.557 1096.47 238.791 1096.16 236.602L1098.45 289.793L1079.66 290.603ZM1238.04 208.462L1238.7 223.737L1233.87 221.633C1228.34 219.45 1222.54 218.489 1216.46 218.751C1208.11 219.111 1201.47 221.82 1196.55 226.877C1191.63 231.933 1189.34 238.455 1189.69 246.441C1190.02 254.133 1192.74 260.218 1197.85 264.696C1202.96 269.173 1209.51 271.239 1217.5 270.895C1218.6 270.847 1219.58 270.768 1220.46 270.657C1221.34 270.546 1223.08 270.177 1225.7 269.55L1225.14 256.582L1215.36 257.004L1214.77 243.377L1242.68 242.173L1244.36 281.077L1239.57 282.274C1235.57 283.254 1231.35 284.097 1226.91 284.802C1222.53 285.505 1218.77 285.924 1215.62 286.06C1202.65 286.619 1191.94 283.411 1183.49 276.435C1175.12 269.383 1170.67 259.886 1170.15 247.944C1169.63 235.855 1173.27 225.679 1181.06 217.416C1188.85 209.152 1199.01 204.75 1211.54 204.21C1216.01 204.017 1220.24 204.238 1224.23 204.873C1228.22 205.509 1232.82 206.705 1238.04 208.462ZM1261.19 282.773L1257.77 203.537L1307.66 201.385L1308.26 215.232L1277.38 216.564L1278.16 234.807L1307.18 233.555L1307.76 246.963L1278.74 248.214L1279.61 268.216L1311.26 266.85L1311.85 280.588L1261.19 282.773Z" fill="white"/>
</g>
<defs>
<filter id="filter0_d_3013_31181" x="241.366" y="0.479492" width="534.89" height="193.607" filterUnits="userSpaceOnUse" color-interpolation-filters="sRGB">
<feFlood flood-opacity="0" result="BackgroundImageFix"/>
<feColorMatrix in="SourceAlpha" type="matrix" values="0 0 0 0 0 0 0 0 0 0 0 0 0 0 0 0 0 0 127 0" result="hardAlpha"/>
<feOffset dx="18.7672" dy="18.7672"/>
<feGaussianBlur stdDeviation="3.12786"/>
<feComposite in2="hardAlpha" operator="out"/>
<feColorMatrix type="matrix" values="0 0 0 0 0 0 0 0 0 0 0 0 0 0 0 0 0 0 0.4 0"/>
<feBlend mode="normal" in2="BackgroundImageFix" result="effect1_dropShadow_3013_31181"/>
<feBlend mode="normal" in="SourceGraphic" in2="effect1_dropShadow_3013_31181" result="shape"/>
</filter>
<filter id="filter1_d_3013_31181" x="732.118" y="0.407227" width="398.977" height="246.47" filterUnits="userSpaceOnUse" color-interpolation-filters="sRGB">
<feFlood flood-opacity="0" result="BackgroundImageFix"/>
<feColorMatrix in="SourceAlpha" type="matrix" values="0 0 0 0 0 0 0 0 0 0 0 0 0 0 0 0 0 0 127 0" result="hardAlpha"/>
<feOffset dx="18.7672" dy="18.7672"/>
<feGaussianBlur stdDeviation="3.12786"/>
<feComposite in2="hardAlpha" operator="out"/>
<feColorMatrix type="matrix" values="0 0 0 0 0 0 0 0 0 0 0 0 0 0 0 0 0 0 0.4 0"/>
<feBlend mode="normal" in2="BackgroundImageFix" result="effect1_dropShadow_3013_31181"/>
<feBlend mode="normal" in="SourceGraphic" in2="effect1_dropShadow_3013_31181" result="shape"/>
</filter>
<filter id="filter2_d_3013_31181" x="0.450684" y="161.713" width="674.893" height="237.907" filterUnits="userSpaceOnUse" color-interpolation-filters="sRGB">
<feFlood flood-opacity="0" result="BackgroundImageFix"/>
<feColorMatrix in="SourceAlpha" type="matrix" values="0 0 0 0 0 0 0 0 0 0 0 0 0 0 0 0 0 0 127 0" result="hardAlpha"/>
<feOffset dx="18.7672" dy="18.7672"/>
<feGaussianBlur stdDeviation="3.12786"/>
<feComposite in2="hardAlpha" operator="out"/>
<feColorMatrix type="matrix" values="0 0 0 0 0 0 0 0 0 0 0 0 0 0 0 0 0 0 0.4 0"/>
<feBlend mode="normal" in2="BackgroundImageFix" result="effect1_dropShadow_3013_31181"/>
<feBlend mode="normal" in="SourceGraphic" in2="effect1_dropShadow_3013_31181" result="shape"/>
</filter>
<filter id="filter3_d_3013_31181" x="589.25" y="161.74" width="782.659" height="204.295" filterUnits="userSpaceOnUse" color-interpolation-filters="sRGB">
<feFlood flood-opacity="0" result="BackgroundImageFix"/>
<feColorMatrix in="SourceAlpha" type="matrix" values="0 0 0 0 0 0 0 0 0 0 0 0 0 0 0 0 0 0 127 0" result="hardAlpha"/>
<feOffset dx="18.7672" dy="18.7672"/>
<feGaussianBlur stdDeviation="3.12786"/>
<feComposite in2="hardAlpha" operator="out"/>
<feColorMatrix type="matrix" values="0 0 0 0 0 0 0 0 0 0 0 0 0 0 0 0 0 0 0.4 0"/>
<feBlend mode="normal" in2="BackgroundImageFix" result="effect1_dropShadow_3013_31181"/>
<feBlend mode="normal" in="SourceGraphic" in2="effect1_dropShadow_3013_31181" result="shape"/>
</filter>
</defs>
</svg>
